<?xml version="1.0" encoding="utf-8"?>
<!-- Generator: Adobe Illustrator 25.2.1, SVG Export Plug-In . SVG Version: 6.00 Build 0)  -->
<svg version="1.1" xmlns="http://www.w3.org/2000/svg" xmlns:xlink="http://www.w3.org/1999/xlink" x="0px" y="0px"
	 viewBox="0 0 1024 1093.94" style="enable-background:new 0 0 1024 1093.94;" xml:space="preserve">
<style type="text/css">
	.st0{fill:#FFFFFF;stroke:#231F20;stroke-miterlimit:10;}
	.st1{fill:#1D1F26;}
	.st2{fill:#DBEADB;}
	.st3{fill:#009145;}
	.st4{fill:#490D04;}
	.st5{fill:#37B14A;}
	.st6{fill:#89C33F;}
	.st7{fill:#F8B6AB;}
	.st8{fill:#FFE4CA;}
	.st9{fill:#A37572;}
	.st10{fill:#B5928F;}
	.st11{fill:#FFFFFF;}
	.st12{fill:none;stroke:#490D04;stroke-width:6.8716;stroke-linecap:round;stroke-linejoin:round;stroke-miterlimit:10;}
	.st13{fill:#881800;}
	.st14{fill:none;stroke:#490D04;stroke-width:5.1537;stroke-linecap:round;stroke-linejoin:round;stroke-miterlimit:10;}
	.st15{fill:#FF4374;}
	.st16{fill:#EFD4D3;}
	.st17{fill:#FFC257;}
	.st18{fill:#FFD073;}
	.st19{fill:#E0D2FF;}
</style>
<g id="Layer_1">
	<rect x="-0.8" class="st0" width="1024" height="1093.94"/>
	<rect y="1023.94" class="st1" width="1024" height="70"/>
	<g>
		<g>
			<g>
				<path class="st2" d="M278.12,1043.38h5.2c4.09,0,7.46,1.08,10.11,3.2c2.67,2.14,4,5.19,4,9.15c0,4.08-1.32,7.2-3.96,9.36
					c-2.65,2.17-6.06,3.24-10.24,3.24h-5.1V1043.38z M281.25,1065.5h1.1c1.62,0,3.16-0.16,4.6-0.48c1.45-0.33,2.71-0.86,3.79-1.62
					c1.07-0.78,1.94-1.77,2.58-2.99c0.64-1.22,0.97-2.74,0.97-4.55c0-1.79-0.32-3.32-0.95-4.59c-0.63-1.28-1.51-2.26-2.66-2.97
					c-1.12-0.72-2.38-1.25-3.75-1.58c-1.37-0.35-2.9-0.5-4.59-0.5h-1.1V1065.5z"/>
				<path class="st2" d="M302.03,1061.1c0.04,1.38,0.49,2.59,1.33,3.61c0.87,1.02,1.99,1.51,3.36,1.51c1.09,0,1.98-0.25,2.69-0.75
					c0.7-0.51,1.36-1.25,1.98-2.26l2.54,1.43c-0.73,1.32-1.75,2.35-3.03,3.12c-1.28,0.74-2.68,1.11-4.21,1.11
					c-2.34,0-4.2-0.76-5.6-2.31c-1.38-1.59-2.07-3.51-2.07-5.83c0-2.43,0.66-4.45,1.98-6.01c1.29-1.56,3.17-2.31,5.64-2.31
					c2.41,0,4.21,0.75,5.44,2.31c1.24,1.54,1.87,3.52,1.87,5.93v0.46H302.03z M310.93,1058.85c-0.19-1.2-0.63-2.15-1.39-2.83
					c-0.75-0.7-1.72-1.05-2.92-1.05c-0.57,0-1.12,0.08-1.62,0.27c-0.51,0.2-0.94,0.48-1.33,0.82c-0.38,0.36-0.71,0.77-0.98,1.25
					c-0.25,0.49-0.42,0.99-0.5,1.55H310.93z"/>
				<path class="st2" d="M322.77,1056.4c-0.45-0.92-1.11-1.37-2-1.37c-0.42,0-0.8,0.15-1.13,0.45c-0.34,0.3-0.5,0.67-0.5,1.08
					c0,0.4,0.13,0.75,0.38,1.02c0.25,0.28,0.6,0.53,1.05,0.78c0.29,0.13,0.51,0.25,0.67,0.3c0.15,0.09,0.4,0.21,0.77,0.37
					c0.17,0.07,0.34,0.16,0.46,0.2c0.13,0.04,0.23,0.08,0.3,0.12c1.1,0.51,1.99,1.09,2.64,1.76c0.64,0.65,0.97,1.55,0.97,2.64
					c0,1.46-0.54,2.69-1.6,3.67c-1.04,0.98-2.31,1.46-3.77,1.46c-0.61,0-1.19-0.08-1.74-0.25c-0.55-0.15-1.07-0.39-1.56-0.69
					c-0.48-0.3-0.89-0.66-1.26-1.09c-0.37-0.44-0.65-0.92-0.85-1.43l2.57-1.15c0.73,1.32,1.68,1.97,2.84,1.97
					c0.47,0,0.9-0.12,1.29-0.38c0.41-0.25,0.71-0.57,0.89-0.95c0.19-0.4,0.23-0.81,0.12-1.28c-0.11-0.43-0.45-0.87-1.03-1.27
					l-2.95-1.55c-0.5-0.26-0.95-0.53-1.33-0.8c-0.38-0.27-0.69-0.55-0.93-0.84c-0.25-0.3-0.43-0.63-0.56-0.98
					c-0.12-0.38-0.18-0.79-0.18-1.28c0-1.26,0.44-2.32,1.34-3.19c0.89-0.88,1.97-1.31,3.26-1.31c1.96,0,3.38,0.88,4.27,2.71
					L322.77,1056.4z"/>
				<path class="st2" d="M333.54,1045.77c0,0.55-0.2,1.03-0.6,1.42c-0.4,0.4-0.89,0.6-1.46,0.6c-0.58,0-1.07-0.19-1.47-0.6
					c-0.4-0.39-0.6-0.87-0.6-1.42c0-0.58,0.2-1.07,0.6-1.48c0.4-0.41,0.89-0.6,1.47-0.6c0.57,0,1.06,0.19,1.46,0.6
					C333.34,1044.7,333.54,1045.19,333.54,1045.77z M332.98,1068.34h-3.01v-15.49h3.01V1068.34z"/>
				<path class="st2" d="M352.39,1068.06c0,2.9-0.55,5.17-1.67,6.79c-1.12,1.58-3.1,2.37-5.94,2.37c-2.2,0-4-0.63-5.4-1.88
					c-1.38-1.25-2.09-2.96-2.13-5.13h2.99c0,1.39,0.44,2.46,1.28,3.24c0.87,0.75,2,1.13,3.4,1.13c1.71,0,2.88-0.49,3.52-1.5
					c0.63-1,0.94-2.38,0.94-4.2v-2.95h-0.07c-0.62,0.95-1.39,1.67-2.31,2.18c-0.92,0.52-1.92,0.77-2.98,0.77
					c-2.32,0-4.15-0.8-5.48-2.41c-1.33-1.62-1.98-3.59-1.98-5.96c0-2.24,0.67-4.12,2.02-5.69c1.36-1.62,3.12-2.41,5.31-2.41
					c2.28,0,4.11,1.04,5.42,3.08h0.07v-2.63h3V1068.06z M344.49,1066.22c1.57,0,2.8-0.54,3.69-1.61c0.91-1.11,1.37-2.45,1.37-4.01
					c0-1.55-0.46-2.86-1.37-3.95c-0.88-1.07-2.12-1.62-3.69-1.62c-1.5,0-2.7,0.55-3.61,1.67c-0.89,1.08-1.34,2.38-1.34,3.9
					c0,1.56,0.45,2.88,1.34,3.97C341.8,1065.69,343,1066.22,344.49,1066.22z"/>
				<path class="st2" d="M359.29,1054.93h0.07c0.43-0.83,1.09-1.44,1.93-1.88c0.85-0.45,1.77-0.65,2.77-0.65
					c1.02,0,1.88,0.14,2.6,0.45c0.7,0.3,1.28,0.74,1.71,1.32c0.44,0.58,0.75,1.27,0.94,2.1c0.19,0.82,0.28,1.78,0.28,2.82v9.24h-3
					v-8.87c0-1.53-0.23-2.64-0.66-3.34c-0.45-0.73-1.37-1.1-2.77-1.1c-0.52,0-0.95,0.05-1.3,0.15c-0.36,0.09-0.67,0.23-0.94,0.42
					c-0.27,0.19-0.49,0.41-0.67,0.65c-0.17,0.25-0.35,0.51-0.5,0.81c-0.07,0.14-0.13,0.35-0.19,0.59c-0.05,0.24-0.1,0.49-0.14,0.73
					c-0.05,0.26-0.09,0.51-0.1,0.77c-0.02,0.26-0.03,0.46-0.03,0.61v1.45v7.12h-3v-15.49h3V1054.93z"/>
				<path class="st2" d="M383.14,1039.61h3v15.82h0.07c1.38-2.03,3.19-3.03,5.44-3.03c2.17,0,3.95,0.8,5.31,2.41
					c1.35,1.56,2.03,3.45,2.03,5.69c0,2.37-0.67,4.34-2,5.96c-1.34,1.61-3.17,2.41-5.47,2.41c-1.06,0-2.06-0.25-2.99-0.77
					c-0.92-0.51-1.69-1.23-2.31-2.18h-0.07v2.42h-3V1039.61z M390.91,1066.22c1.58,0,2.81-0.54,3.7-1.61
					c0.91-1.11,1.36-2.45,1.36-4.01c0-1.55-0.45-2.86-1.36-3.95c-0.89-1.07-2.12-1.62-3.7-1.62c-1.49,0-2.7,0.55-3.61,1.67
					c-0.89,1.08-1.34,2.38-1.34,3.9c0,1.56,0.45,2.88,1.34,3.97C388.21,1065.69,389.42,1066.22,390.91,1066.22z"/>
				<path class="st2" d="M399.41,1052.85h3.5l5.27,9.83l4.91-9.83h3.37l-12.65,24.37h-3.4l6.15-11.53L399.41,1052.85z"/>
				<path class="st2" d="M431.59,1062.08l-2.87,6.26h-3.37l12-26.01l12.01,26.01h-3.37l-2.88-6.26H431.59z M437.36,1049.14
					l-4.47,10.11h8.94L437.36,1049.14z"/>
				<path class="st2" d="M454.26,1068.34h-3v-28.73h3V1068.34z"/>
				<path class="st2" d="M461.66,1068.34h-2.99v-28.73h2.99V1068.34z"/>
				<path class="st2" d="M473.07,1056.5v2.47h-7.29v-2.47H473.07z"/>
				<path class="st2" d="M484.75,1042.62c-0.94-0.43-1.61-0.62-2-0.62c-0.64,0-1.12,0.18-1.4,0.6c-0.29,0.4-0.48,0.9-0.6,1.5
					c-0.06,0.45-0.1,0.79-0.12,1.05c-0.01,0.24-0.02,0.6-0.02,1.03v6.66h4.14v2.78h-4.14v12.71h-2.99v-12.71h-1.37v-2.78h1.37v-7.55
					c0-4.06,1.67-6.09,5.03-6.09c0.74,0,1.43,0.13,2.11,0.4V1042.62z"/>
				<path class="st2" d="M489.39,1055.37h0.09c0.39-0.93,0.94-1.66,1.68-2.18c0.74-0.55,1.6-0.79,2.59-0.79
					c0.83,0,1.65,0.24,2.47,0.75l-1.37,2.72c-0.48-0.42-1.1-0.63-1.83-0.63c-1.53,0-2.56,0.62-3.07,1.84
					c-0.22,0.58-0.38,1.17-0.46,1.72c-0.07,0.55-0.11,1.2-0.11,1.92v7.62h-3v-15.49h3V1055.37z"/>
				<path class="st2" d="M499.69,1061.1c0.05,1.38,0.48,2.59,1.33,3.61c0.88,1.02,1.99,1.51,3.37,1.51c1.09,0,1.99-0.25,2.69-0.75
					c0.7-0.51,1.36-1.25,1.98-2.26l2.53,1.43c-0.73,1.32-1.73,2.35-3.02,3.12c-1.27,0.74-2.68,1.11-4.22,1.11
					c-2.32,0-4.2-0.76-5.6-2.31c-1.37-1.59-2.07-3.51-2.07-5.83c0-2.43,0.65-4.45,1.98-6.01c1.28-1.56,3.16-2.31,5.62-2.31
					c2.42,0,4.23,0.75,5.45,2.31c1.25,1.54,1.86,3.52,1.86,5.93v0.46H499.69z M508.59,1058.85c-0.18-1.2-0.64-2.15-1.39-2.83
					c-0.74-0.7-1.72-1.05-2.92-1.05c-0.57,0-1.12,0.08-1.61,0.27c-0.5,0.2-0.95,0.48-1.34,0.82c-0.39,0.36-0.71,0.77-0.97,1.25
					c-0.24,0.49-0.43,0.99-0.52,1.55H508.59z"/>
				<path class="st2" d="M515.96,1061.1c0.05,1.38,0.5,2.59,1.34,3.61c0.86,1.02,1.98,1.51,3.36,1.51c1.1,0,1.99-0.25,2.69-0.75
					c0.7-0.51,1.37-1.25,1.98-2.26l2.53,1.43c-0.73,1.32-1.73,2.35-3,3.12c-1.28,0.74-2.69,1.11-4.23,1.11
					c-2.33,0-4.2-0.76-5.6-2.31c-1.38-1.59-2.07-3.51-2.07-5.83c0-2.43,0.65-4.45,1.97-6.01c1.29-1.56,3.16-2.31,5.65-2.31
					c2.39,0,4.21,0.75,5.42,2.31c1.25,1.54,1.86,3.52,1.86,5.93v0.46H515.96z M524.88,1058.85c-0.18-1.2-0.65-2.15-1.39-2.83
					c-0.75-0.7-1.73-1.05-2.91-1.05c-0.59,0-1.13,0.08-1.63,0.27c-0.5,0.2-0.95,0.48-1.33,0.82c-0.39,0.36-0.73,0.77-0.97,1.25
					c-0.26,0.49-0.43,0.99-0.52,1.55H524.88z"/>
				<path class="st2" d="M537.57,1056.5v2.47h-7.29v-2.47H537.57z"/>
				<path class="st2" d="M553.15,1065.92h-0.05c-0.63,0.95-1.4,1.67-2.33,2.18c-0.92,0.52-1.92,0.77-2.98,0.77
					c-2.33,0-4.14-0.8-5.47-2.41c-1.34-1.62-2-3.59-2-5.96c0-2.24,0.67-4.12,2.03-5.69c1.36-1.62,3.12-2.41,5.31-2.41
					c2.24,0,4.05,1,5.44,3.03h0.05v-15.82h3v28.73h-3V1065.92z M548.24,1066.22c1.59,0,2.83-0.54,3.71-1.61
					c0.9-1.11,1.37-2.45,1.37-4.01c0-1.55-0.46-2.86-1.37-3.95c-0.88-1.07-2.12-1.62-3.71-1.62c-1.48,0-2.68,0.55-3.59,1.67
					c-0.89,1.08-1.34,2.38-1.34,3.9c0,1.56,0.45,2.88,1.34,3.97C545.56,1065.69,546.76,1066.22,548.24,1066.22z"/>
				<path class="st2" d="M561.05,1054.77c1.62-1.58,3.61-2.37,5.94-2.37c2.33,0,4.31,0.79,5.9,2.37c1.63,1.59,2.44,3.55,2.44,5.87
					s-0.81,4.27-2.44,5.86c-1.58,1.59-3.57,2.37-5.9,2.37c-2.34,0-4.32-0.78-5.94-2.37c-1.59-1.59-2.39-3.54-2.39-5.86
					S559.46,1056.36,561.05,1054.77z M561.65,1060.64c0,1.43,0.53,2.7,1.58,3.81c1.02,1.06,2.28,1.58,3.77,1.58
					c1.45,0,2.72-0.53,3.76-1.58c1.05-1.1,1.58-2.37,1.58-3.81c0-1.46-0.52-2.73-1.58-3.81c-1.04-1.07-2.31-1.59-3.76-1.59
					c-1.49,0-2.75,0.52-3.77,1.59C562.18,1057.91,561.65,1059.18,561.65,1060.64z"/>
				<path class="st2" d="M583.4,1062.72l4.6-10.73l4.57,10.73l4.53-9.86h3.41l-7.94,16.02l-4.57-10.35l-4.6,10.35l-7.93-16.02h3.4
					L583.4,1062.72z"/>
				<path class="st2" d="M605.01,1054.93h0.06c0.44-0.83,1.1-1.44,1.95-1.88c0.83-0.45,1.77-0.65,2.76-0.65
					c1.03,0,1.89,0.14,2.6,0.45c0.71,0.3,1.29,0.74,1.71,1.32c0.46,0.58,0.76,1.27,0.95,2.1c0.19,0.82,0.27,1.78,0.27,2.82v9.24h-3
					v-8.87c0-1.53-0.21-2.64-0.66-3.34c-0.46-0.73-1.37-1.1-2.78-1.1c-0.51,0-0.94,0.05-1.31,0.15c-0.34,0.09-0.66,0.23-0.92,0.42
					c-0.27,0.19-0.5,0.41-0.67,0.65c-0.18,0.25-0.33,0.51-0.5,0.81c-0.05,0.14-0.12,0.35-0.17,0.59c-0.06,0.24-0.1,0.49-0.16,0.73
					c-0.03,0.26-0.07,0.51-0.1,0.77c-0.01,0.26-0.03,0.46-0.03,0.61v1.45v7.12h-3v-15.49h3V1054.93z"/>
				<path class="st2" d="M622.58,1068.34h-3v-28.73h3V1068.34z"/>
				<path class="st2" d="M627.85,1054.77c1.63-1.58,3.61-2.37,5.94-2.37c2.32,0,4.3,0.79,5.9,2.37c1.62,1.59,2.43,3.55,2.43,5.87
					s-0.81,4.27-2.43,5.86c-1.6,1.59-3.58,2.37-5.9,2.37c-2.33,0-4.31-0.78-5.94-2.37c-1.61-1.59-2.4-3.54-2.4-5.86
					S626.25,1056.36,627.85,1054.77z M628.46,1060.64c0,1.43,0.52,2.7,1.57,3.81c1.02,1.06,2.28,1.58,3.77,1.58
					c1.47,0,2.72-0.53,3.76-1.58c1.06-1.1,1.58-2.37,1.58-3.81c0-1.46-0.53-2.73-1.58-3.81c-1.04-1.07-2.28-1.59-3.76-1.59
					c-1.49,0-2.75,0.52-3.77,1.59C628.98,1057.91,628.46,1059.18,628.46,1060.64z"/>
				<path class="st2" d="M659.5,1068.34h-3v-2.42h-0.07c-1.33,1.98-3.1,2.95-5.3,2.95c-2.29,0-4.11-0.8-5.48-2.41
					c-1.33-1.62-1.98-3.59-1.98-5.96c0-2.24,0.68-4.12,2.02-5.69c1.36-1.62,3.14-2.41,5.33-2.41c2.23,0,4.04,1,5.41,3.03h0.07v-2.57
					h3V1068.34z M651.6,1066.22c1.57,0,2.81-0.54,3.71-1.61c0.9-1.11,1.35-2.45,1.35-4.01c0-1.55-0.45-2.86-1.35-3.95
					c-0.9-1.07-2.14-1.62-3.71-1.62c-1.49,0-2.7,0.55-3.6,1.67c-0.89,1.08-1.33,2.38-1.33,3.9c0,1.56,0.44,2.88,1.33,3.97
					C648.9,1065.69,650.11,1066.22,651.6,1066.22z"/>
				<path class="st2" d="M675.05,1065.92h-0.07c-0.62,0.95-1.4,1.67-2.32,2.18c-0.91,0.52-1.91,0.77-2.98,0.77
					c-2.32,0-4.13-0.8-5.47-2.41c-1.34-1.62-1.99-3.59-1.99-5.96c0-2.24,0.67-4.12,2.04-5.69c1.35-1.62,3.11-2.41,5.29-2.41
					c2.25,0,4.06,1,5.44,3.03h0.07v-15.82h3v28.73h-3V1065.92z M670.15,1066.22c1.58,0,2.81-0.54,3.7-1.61
					c0.92-1.11,1.36-2.45,1.36-4.01c0-1.55-0.45-2.86-1.36-3.95c-0.89-1.07-2.12-1.62-3.7-1.62c-1.5,0-2.69,0.55-3.61,1.67
					c-0.88,1.08-1.32,2.38-1.32,3.9c0,1.56,0.44,2.88,1.32,3.97C667.46,1065.69,668.65,1066.22,670.15,1066.22z"/>
				<path class="st2" d="M686.65,1066.96c0,0.53-0.18,0.99-0.56,1.36c-0.38,0.37-0.84,0.55-1.38,0.55c-0.52,0-1-0.19-1.37-0.55
					c-0.37-0.37-0.57-0.83-0.57-1.36c0-0.51,0.2-0.96,0.57-1.35c0.37-0.37,0.85-0.56,1.37-0.56c0.53,0,1,0.19,1.38,0.56
					C686.47,1065.99,686.65,1066.45,686.65,1066.96z"/>
				<path class="st2" d="M703.05,1057.26c-1.24-1.39-2.74-2.1-4.47-2.1c-1.45,0-2.67,0.56-3.69,1.64c-1.01,1.09-1.5,2.38-1.5,3.8
					c0,1.62,0.5,2.91,1.5,3.93c1.04,1.04,2.33,1.57,3.88,1.57c1.61,0,3.04-0.7,4.28-2.07v3.81c-1.29,0.69-2.72,1.02-4.29,1.02
					c-2.31,0-4.29-0.77-5.94-2.35c-1.62-1.55-2.43-3.47-2.43-5.79c0-2.38,0.81-4.36,2.43-5.96c1.62-1.58,3.65-2.37,6.1-2.37
					c1.61,0,2.99,0.33,4.14,1.02V1057.26z"/>
				<path class="st2" d="M707.3,1054.77c1.62-1.58,3.6-2.37,5.94-2.37c2.34,0,4.31,0.79,5.91,2.37c1.61,1.59,2.42,3.55,2.42,5.87
					s-0.8,4.27-2.42,5.86c-1.6,1.59-3.57,2.37-5.91,2.37c-2.33,0-4.31-0.78-5.94-2.37c-1.6-1.59-2.41-3.54-2.41-5.86
					S705.7,1056.36,707.3,1054.77z M707.9,1060.64c0,1.43,0.5,2.7,1.56,3.81c1.02,1.06,2.28,1.58,3.77,1.58
					c1.46,0,2.73-0.53,3.77-1.58c1.04-1.1,1.56-2.37,1.56-3.81c0-1.46-0.53-2.73-1.56-3.81c-1.04-1.07-2.31-1.59-3.77-1.59
					c-1.5,0-2.75,0.52-3.77,1.59C708.4,1057.91,707.9,1059.18,707.9,1060.64z"/>
				<path class="st2" d="M727.2,1054.81h0.08c0.43-0.72,1.02-1.29,1.78-1.76c0.74-0.43,1.53-0.65,2.35-0.65
					c1.95,0,3.45,0.9,4.5,2.73c0.48-0.83,1.16-1.51,2.02-2c0.84-0.5,1.79-0.73,2.78-0.73c3.46,0,5.17,2.22,5.17,6.68v9.26h-3v-8.77
					c0-0.39-0.02-0.8-0.05-1.18c-0.04-0.38-0.09-0.75-0.19-1.13c-0.09-0.35-0.22-0.68-0.41-1c-0.17-0.3-0.41-0.58-0.72-0.83
					c-0.4-0.26-0.91-0.39-1.53-0.39c-0.63,0-1.16,0.13-1.59,0.39c-0.43,0.25-0.76,0.57-0.99,0.92c-0.25,0.35-0.43,0.84-0.56,1.37
					c-0.12,0.54-0.21,1.05-0.25,1.5c-0.02,0.43-0.05,0.95-0.05,1.51v7.62h-3.01v-8.2c0-0.53,0-0.96-0.03-1.31
					c-0.02-0.37-0.09-0.8-0.2-1.35c-0.11-0.57-0.25-0.98-0.43-1.25c-0.18-0.3-0.45-0.58-0.83-0.83c-0.38-0.24-0.84-0.36-1.37-0.36
					c-1.54,0-2.52,0.67-2.96,1.99c-0.21,0.61-0.34,1.21-0.41,1.74c-0.06,0.56-0.09,1.21-0.09,1.96v7.62h-3v-15.49h3V1054.81z"/>
			</g>
			<g>
				<g>
					<path class="st2" d="M208.16,1059.22c14.16,0,28.32,0,42.48,0c1.29,0,1.29-1.99,0-1.99c-14.16,0-28.32,0-42.48,0
						C206.88,1057.23,206.88,1059.22,208.16,1059.22L208.16,1059.22z"/>
				</g>
				<g>
					<path class="st2" d="M773.36,1059.22c14.15,0,28.31,0,42.47,0c1.3,0,1.3-1.99,0-1.99c-14.15,0-28.32,0-42.47,0
						C772.08,1057.23,772.08,1059.22,773.36,1059.22L773.36,1059.22z"/>
				</g>
			</g>
		</g>
	</g>
	<g>
		<g>
			<path class="st3" d="M317.84,630.26c0,0-33.99,106.66-8.02,142.37C335.79,808.35,376.45,558.34,317.84,630.26z"/>
			<g>
				<path class="st4" d="M322.5,632.79c0.15-0.26,0.3-0.62,0.36-0.85l-0.03,0.07l-0.06,0.15l-0.12,0.3l-0.25,0.61l-0.49,1.24
					l-0.97,2.5l-1.84,5.05c-1.17,3.39-2.34,6.79-3.4,10.23c-2.17,6.86-4.09,13.79-5.85,20.76c-1.69,6.99-3.27,14.01-4.49,21.1
					c-0.62,3.54-1.2,7.09-1.69,10.65c-0.47,3.56-0.88,7.13-1.21,10.71c-0.68,7.15-0.88,14.34-0.49,21.47
					c0.4,7.12,1.5,14.21,3.64,20.85c0.27,0.83,0.58,1.64,0.86,2.45c0.33,0.8,0.63,1.61,0.98,2.39c0.38,0.77,0.65,1.59,1.16,2.28
					c0.25,0.35,0.54,0.68,0.84,1c0.34,0.3,0.69,0.58,1.07,0.85c0.71,0.55,1.55,0.98,2.17,1.51c0.32,0.26,0.64,0.51,0.9,0.79
					c0.26,0.26,0.5,0.64,0.67,0.82c0.36,0.48,0.71,0.79,0.94,0.97c0.24,0.18,0.3,0.15,0.15,0.11c-0.14-0.05-0.33,0-0.22-0.04
					c0.1-0.04,0.41-0.22,0.78-0.53c0.76-0.66,1.68-1.74,2.51-2.99c1.69-2.51,3.18-5.55,4.51-8.67c2.67-6.28,4.78-13.03,6.68-19.82
					c1.9-6.81,3.52-13.73,4.94-20.7c2.81-13.95,4.97-28.08,6.26-42.22c0.61-7.07,1.07-14.14,1.14-21.16
					c0.06-7-0.21-14.02-1.31-20.53c-0.56-3.21-1.39-6.38-2.57-8.67c-0.29-0.56-0.6-1.05-0.89-1.45c-0.3-0.37-0.57-0.66-0.78-0.83
					c-0.21-0.17-0.34-0.22-0.48-0.27c-0.14-0.04-0.31-0.09-0.63-0.06c-0.63,0.06-1.71,0.39-2.86,1.08
					c-1.15,0.66-2.36,1.56-3.56,2.57c-1.2,1-2.38,2.16-3.54,3.35c-0.58,0.6-1.15,1.22-1.72,1.85l-0.4,0.44
					c-0.07,0.08-0.15,0.16-0.22,0.23C322.85,632.51,322.69,632.65,322.5,632.79z M313.18,627.74c0.39-0.56,0.81-1.11,1.23-1.66
					l0.65-0.81l0.49-0.58c0.61-0.74,1.25-1.47,1.9-2.19c1.31-1.45,2.67-2.88,4.2-4.25c1.52-1.37,3.18-2.7,5.13-3.89
					c1.94-1.18,4.27-2.28,7.23-2.69c1.47-0.2,3.14-0.13,4.75,0.27c1.61,0.4,3.14,1.14,4.38,2.04c1.24,0.91,2.24,1.93,3.07,2.97
					c0.81,1.04,1.47,2.08,2.02,3.12c2.16,4.14,3.11,8.08,3.88,11.96c1.44,7.74,1.72,15.24,1.73,22.7
					c-0.03,7.45-0.41,14.83-1.09,22.17c-1.36,14.67-3.56,29.19-6.67,43.56c-1.55,7.19-3.3,14.34-5.36,21.45
					c-2.08,7.11-4.46,14.16-7.57,21.14c-1.59,3.49-3.32,6.96-5.73,10.42c-1.22,1.72-2.61,3.47-4.63,5.13
					c-1.03,0.82-2.26,1.64-3.86,2.24c-1.57,0.6-3.62,0.88-5.54,0.49c-1.93-0.37-3.52-1.27-4.69-2.2c-1.19-0.94-2.1-1.95-2.82-2.92
					c-0.41-0.51-0.64-0.91-0.9-1.39c-0.24-0.47-0.46-0.95-0.61-1.46c-0.28-1.03-0.44-2.12-0.53-3.19c-0.1-1.07-0.24-2.08-0.48-3.02
					c-0.28-0.93-0.63-1.81-0.94-2.72c-0.32-0.9-0.56-1.82-0.85-2.72c-0.24-0.91-0.49-1.82-0.7-2.74c-1.71-7.32-2.27-14.7-2.49-22.02
					c-0.2-7.33,0.06-14.62,0.49-21.89c0.23-3.64,0.55-7.27,0.92-10.89c0.36-3.62,0.76-7.24,1.23-10.85
					c0.96-7.21,2.01-14.42,3.27-21.59c1.2-7.19,2.56-14.34,3.97-21.5c0.73-3.57,1.42-7.16,2.2-10.74l1.14-5.38l0.58-2.7l0.3-1.35
					l0.15-0.68l0.08-0.34l0.04-0.17l0.02-0.09C312.85,628.47,313.01,628.06,313.18,627.74z"/>
			</g>
		</g>
		<g>
			<path class="st3" d="M702.51,646.37c0,0,33.99,106.66,8.02,142.37C684.56,824.46,643.9,574.44,702.51,646.37z"/>
			<g>
				<path class="st4" d="M707.17,643.85c0.17,0.32,0.33,0.73,0.41,1.01l0.02,0.09l0.04,0.17l0.08,0.34l0.15,0.68l0.3,1.35l0.58,2.7
					l1.14,5.38c0.78,3.57,1.47,7.16,2.2,10.74c1.41,7.16,2.77,14.32,3.97,21.5c1.26,7.17,2.3,14.38,3.27,21.6
					c0.47,3.61,0.87,7.23,1.23,10.85c0.38,3.62,0.69,7.25,0.92,10.89c0.43,7.28,0.69,14.57,0.49,21.89
					c-0.22,7.32-0.78,14.7-2.49,22.02c-0.21,0.92-0.46,1.83-0.7,2.74c-0.28,0.9-0.53,1.82-0.85,2.72c-0.31,0.91-0.66,1.79-0.94,2.72
					c-0.24,0.94-0.38,1.96-0.48,3.02c-0.08,1.07-0.25,2.16-0.53,3.19c-0.15,0.51-0.37,1-0.61,1.46c-0.26,0.48-0.49,0.87-0.9,1.39
					c-0.72,0.97-1.63,1.97-2.82,2.92c-1.18,0.93-2.77,1.83-4.69,2.2c-1.92,0.39-3.97,0.11-5.54-0.49c-1.6-0.6-2.82-1.42-3.86-2.24
					c-2.01-1.67-3.41-3.41-4.63-5.13c-2.41-3.46-4.15-6.93-5.73-10.42c-3.11-6.98-5.49-14.03-7.57-21.14
					c-2.06-7.11-3.81-14.26-5.36-21.45c-3.11-14.37-5.31-28.89-6.67-43.56c-0.68-7.34-1.06-14.72-1.09-22.17
					c0-7.46,0.28-14.96,1.73-22.7c0.77-3.88,1.72-7.82,3.88-11.96c0.56-1.03,1.22-2.08,2.02-3.12c0.83-1.04,1.83-2.06,3.07-2.97
					c1.24-0.91,2.78-1.65,4.38-2.04c1.61-0.4,3.27-0.47,4.75-0.28c2.96,0.41,5.29,1.51,7.23,2.69c1.95,1.19,3.61,2.52,5.13,3.89
					c1.53,1.37,2.88,2.8,4.2,4.25c0.66,0.72,1.29,1.46,1.9,2.19l0.49,0.58l0.65,0.81C706.37,642.73,706.78,643.29,707.17,643.85z
					 M697.85,648.89c-0.18-0.14-0.35-0.28-0.51-0.43c-0.08-0.07-0.15-0.15-0.22-0.23l-0.4-0.44c-0.57-0.63-1.14-1.25-1.72-1.85
					c-1.16-1.19-2.34-2.35-3.54-3.35c-1.2-1.01-2.41-1.91-3.56-2.57c-1.15-0.68-2.22-1.02-2.86-1.08c-0.32-0.03-0.49,0.02-0.63,0.06
					c-0.14,0.05-0.27,0.1-0.48,0.27c-0.21,0.17-0.48,0.46-0.78,0.83c-0.29,0.4-0.6,0.88-0.89,1.45c-1.18,2.29-2.01,5.46-2.57,8.67
					c-1.1,6.52-1.37,13.54-1.31,20.53c0.07,7.02,0.53,14.09,1.14,21.16c1.28,14.14,3.45,28.27,6.26,42.22
					c1.42,6.97,3.05,13.89,4.94,20.7c1.9,6.79,4,13.54,6.68,19.82c1.33,3.12,2.82,6.16,4.51,8.67c0.83,1.25,1.75,2.33,2.51,2.99
					c0.37,0.31,0.68,0.49,0.78,0.53c0.11,0.04-0.08,0-0.22,0.04c-0.15,0.04-0.09,0.07,0.15-0.11c0.23-0.17,0.59-0.49,0.94-0.97
					c0.16-0.18,0.41-0.56,0.67-0.82c0.26-0.28,0.58-0.53,0.9-0.79c0.63-0.53,1.46-0.96,2.17-1.51c0.38-0.26,0.73-0.55,1.07-0.85
					c0.31-0.32,0.59-0.65,0.84-1c0.51-0.7,0.78-1.51,1.16-2.28c0.35-0.78,0.65-1.59,0.98-2.39c0.29-0.82,0.59-1.63,0.86-2.45
					c2.14-6.63,3.24-13.73,3.64-20.85c0.4-7.13,0.19-14.32-0.49-21.47c-0.33-3.57-0.73-7.14-1.21-10.71
					c-0.49-3.56-1.07-7.11-1.69-10.65c-1.22-7.09-2.8-14.11-4.49-21.1c-1.76-6.98-3.68-13.91-5.85-20.76
					c-1.06-3.43-2.23-6.84-3.4-10.23l-1.84-5.05l-0.97-2.5l-0.49-1.24l-0.25-0.61l-0.12-0.3l-0.06-0.15l-0.03-0.07
					C697.55,648.27,697.7,648.63,697.85,648.89z"/>
			</g>
		</g>
		<g>
			<path class="st5" d="M352.39,584.76l163.75-51.5l159.07,60.62c0,0-50.21,234.8-41.41,273.03c4.91,21.32-236.47,48.09-250.16,6.95
				C364.55,816.51,345.43,637.99,352.39,584.76z"/>
			<g>
				<path class="st4" d="M348.33,581.35c15.03-3.44,29.39-7.19,43.53-11.09c7.03-1.99,14.1-3.91,20.97-6.05
					c6.88-2.13,13.52-4.59,20.21-7.02c13.41-4.84,26.97-9.58,40.56-14.41l20.44-7.23l20.5-7.34c1.03-0.37,2.11-0.36,3.08-0.03
					l0.4,0.13l0,0c6.36,3.23,12.81,6.22,19.27,9.19l9.72,4.37l9.76,4.26c13.04,5.62,26.18,10.98,39.38,16.16
					c13.2,5.19,26.52,10.08,39.96,14.66l20.18,6.8c6.72,2.28,13.41,4.66,20.8,5.17c1.55,0.11,2.75,1.31,2.92,2.8l0.37,3.27l0,0
					c-2.6,8.26-4.92,16.62-7.09,25c-2.18,8.38-4.22,16.79-6.14,25.23c-3.89,16.86-7.3,33.83-10.12,50.9
					c-2.83,17.07-5.14,34.22-7.85,51.29c-2.69,17.07-5.68,34.08-8.71,51.09c-2.96,17-5.83,34.12-6.43,51.33
					c-0.14,4.29-0.07,8.6,0.35,12.81c0.15,1.04,0.25,2.09,0.48,3.1l0.15,0.76l0.1,0.5c0.02,0.19,0.04,0.39,0.04,0.59
					c0,0.79-0.24,1.53-0.56,2.14c-0.67,1.22-1.56,2.09-2.48,2.83c-0.92,0.74-1.89,1.36-2.86,1.93c-3.93,2.24-8.07,3.74-12.2,5.2
					c-4.14,1.43-8.34,2.64-12.55,3.8c-8.42,2.3-16.93,4.18-25.47,5.87c-8.54,1.71-17.13,3.1-25.74,4.3
					c-8.62,1.13-17.27,2.11-25.93,2.84c-8.66,0.76-17.34,1.34-26.03,1.73c-8.69,0.42-17.39,0.56-26.1,0.55
					c-8.71-0.03-17.42-0.23-26.13-0.8c-8.71-0.56-17.42-1.41-26.09-2.79c-8.66-1.42-17.33-3.23-25.69-6.66
					c-4.14-1.76-8.29-3.91-11.76-7.36c-1.71-1.72-3.21-3.85-4.05-6.31l-1.89-6.34c-2.35-8.43-4.22-16.92-5.88-25.44
					c-1.66-8.52-3.15-17.07-4.51-25.63c-1.37-8.56-2.72-17.12-3.96-25.69l-3.83-25.7c-1.33-8.56-2.59-17.13-3.79-25.72
					c-2.36-17.17-4.42-34.39-6.21-51.64c-1.79-17.26-3.26-34.55-4.26-51.93c-0.47-8.69-0.85-17.39-0.95-26.15
					c-0.03-4.38-0.03-8.77,0.1-13.18c0.02-2.2,0.2-4.43,0.29-6.65c0.04-0.6,0.03-0.96,0.14-1.94c0.09-0.85,0.21-1.7,0.37-2.56
					C347.39,584.59,347.83,582.91,348.33,581.35z M356.45,588.16c0.26,0.6,0.47,1.06,0.54,1.51c0.04,0.22,0.04,0.44,0.02,0.67
					c-0.02,0.1-0.09,0.82-0.13,1.3c-0.17,2.1-0.43,4.18-0.54,6.31c-0.31,4.23-0.48,8.49-0.63,12.77
					c-0.26,8.55-0.25,17.16-0.15,25.76c0.26,17.22,1,34.47,2.06,51.71c1.06,17.24,2.39,34.48,4.02,51.69
					c1.6,17.21,3.32,34.44,6.02,51.52c2.7,17.07,5.82,34.09,9.76,50.89c1.98,8.39,4.02,16.77,6.54,24.96l1.98,6.05
					c0.6,1.63,1.67,3.12,3.03,4.43c2.74,2.63,6.45,4.53,10.28,6.04c7.75,2.98,16.17,4.58,24.6,5.75c8.45,1.14,17.01,1.76,25.58,2.1
					c17.15,0.68,34.37,0.33,51.56-0.54c8.6-0.44,17.19-1.01,25.77-1.71c8.58-0.73,17.16-1.51,25.71-2.46
					c17.11-1.85,34.26-3.83,51.1-7.29c4.21-0.86,8.38-1.88,12.49-3.05c4.1-1.18,8.16-2.57,11.84-4.49c0.91-0.49,1.79-1.01,2.57-1.61
					c0.78-0.59,1.48-1.25,1.85-1.94c0.18-0.34,0.28-0.66,0.28-0.96c0-0.07-0.01-0.15-0.01-0.22l-0.05-0.29l-0.16-0.83
					c-0.24-1.11-0.33-2.22-0.47-3.32c-0.41-4.41-0.35-8.77-0.27-13.13c0.22-8.71,0.82-17.36,1.44-26.03
					c0.66-8.66,1.36-17.31,2.21-25.95c1.68-17.28,4.12-34.46,7.18-51.52c3.05-17.06,6.86-33.98,10.38-50.94
					c3.53-16.96,6.69-33.98,9.55-51.06c1.46-8.54,2.84-17.09,4.13-25.67c1.31-8.58,2.49-17.16,3.49-25.83l0,0l3.3,6.06
					c-5.86-4.54-12.43-7.21-18.97-9.98l-19.59-8.35c-13.07-5.53-26.27-10.74-39.58-15.65c-13.3-4.93-26.68-9.66-40.15-14.15
					l-10.12-3.32l-10.16-3.21c-6.8-2.08-13.6-4.14-20.5-5.96l0,0l3.48,0.1l-20.43,5.53l-20.5,5.64
					c-13.71,3.75-27.43,7.6-41.32,11.34c-6.95,1.86-13.96,3.69-20.72,5.85c-6.78,2.15-13.35,4.53-19.97,6.82
					C381.64,578.19,368.71,583.02,356.45,588.16z"/>
			</g>
			<path class="st6" d="M512.86,602.97L512.86,602.97c-26.45,0-47.89-21.44-47.89-47.89v-47.89h95.78v47.89
				C560.75,581.53,539.31,602.97,512.86,602.97z"/>
			<g>
				<path class="st4" d="M512.86,603.83c-5.22,0.14-10.49-0.46-15.62-1.82l-3.81-1.18l-3.69-1.55c-0.63-0.24-1.21-0.58-1.8-0.89
					l-1.77-0.96c-1.2-0.61-2.3-1.39-3.4-2.15c-4.4-3.08-8.39-6.87-11.48-11.34c-3.11-4.44-5.53-9.37-7.14-14.56l-1.03-3.95
					c-0.23-1.34-0.43-2.69-0.65-4.03l-0.16-1.01c-0.04-0.34-0.04-0.68-0.07-1.02l-0.11-2.04l-0.11-2.04
					c-0.02-0.66-0.01-1.29-0.02-1.93l0.02-15.39c0.06-10.26,0.19-20.52,0.43-30.77l0-0.06c0.03-1.36,1.15-2.45,2.51-2.45h95.78h0.04
					c1.37,0,2.48,1.11,2.48,2.48c0,0.01,0,0.03,0,0.04l-0.44,30.77l-0.22,15.39c-0.12,5.18-0.55,10.63-2.24,15.66
					c-1.59,5.06-3.97,9.85-7.01,14.17c-3.03,4.34-6.87,8.04-11.1,11.15c-4.25,3.07-8.94,5.59-13.96,7.09l-0.93,0.32l-0.95,0.23
					l-1.91,0.46c-0.64,0.15-1.27,0.32-1.91,0.45l-1.94,0.27l-1.94,0.27c-0.32,0.04-0.65,0.1-0.97,0.13l-0.98,0.04
					C515.46,603.63,514.16,603.73,512.86,603.83z M512.86,602.1c10.08-0.04,20.09-3.51,27.95-9.69c3.93-3.07,7.47-6.68,10.21-10.85
					c2.75-4.15,4.85-8.71,6.2-13.47l0.87-3.61l0.51-3.67l0.13-0.92c0.03-0.31,0.03-0.62,0.04-0.93l0.07-1.85l0.07-1.85
					c0.01-0.63-0.01-1.28-0.02-1.92l-0.22-15.39l-0.44-30.77l2.51,2.51h-95.78l2.51-2.51c0.25,10.26,0.37,20.52,0.43,30.77
					l0.02,15.39c0,0.64-0.02,1.29,0,1.91l0.09,1.8l0.08,1.8c0.02,0.3,0.02,0.6,0.05,0.9l0.13,0.89l0.53,3.57l0.88,3.5
					c1.34,4.63,3.38,9.05,6.07,13.07l2.13,2.94l2.38,2.75c0.38,0.47,0.82,0.9,1.26,1.31l1.31,1.27c0.44,0.41,0.85,0.87,1.33,1.25
					l1.42,1.15c3.78,3.05,7.98,5.75,12.64,7.5C502.87,600.79,507.82,601.82,512.86,602.1z"/>
			</g>
			<path class="st7" d="M512.86,584.76L512.86,584.76c-18,0-32.59-14.59-32.59-32.59v-32.59h65.17v32.59
				C545.45,570.17,530.86,584.76,512.86,584.76z"/>
			<g>
				<path class="st4" d="M512.86,585.12c-7.03,0.31-14.4-1.46-20.46-5.62c-3.03-2.04-5.81-4.56-7.99-7.58
					c-2.2-2.99-3.89-6.36-5.03-9.92l-0.75-2.71c-0.18-0.92-0.33-1.84-0.49-2.77c-0.19-0.92-0.18-1.86-0.26-2.8l-0.09-1.41
					l-0.03-1.32l-0.11-10.47c-0.04-6.98-0.02-13.96,0.11-20.94l0-0.05c0.03-1.37,1.15-2.46,2.51-2.46h65.17h0.06
					c1.35,0,2.45,1.1,2.45,2.45c0,0.02,0,0.05,0,0.06l-0.54,20.94l-0.27,10.47c-0.12,3.54-0.46,7.31-1.66,10.75
					c-1.13,3.47-2.8,6.73-4.92,9.66c-2.11,2.94-4.76,5.45-7.67,7.54c-2.92,2.06-6.14,3.74-9.56,4.73
					C519.94,584.69,516.39,585.16,512.86,585.12z M512.86,584.4c3.45-0.14,6.86-0.78,10.09-1.92c3.24-1.11,6.22-2.88,8.88-4.97
					c2.64-2.12,5.01-4.59,6.83-7.43c1.83-2.83,3.2-5.92,4.08-9.14l0.56-2.44l0.32-2.48c0.15-0.82,0.08-1.66,0.13-2.49l0.03-1.24
					l-0.03-1.3l-0.27-10.47l-0.54-20.94l2.51,2.51h-65.17l2.51-2.51c0.13,6.98,0.15,13.96,0.11,20.94l-0.11,10.47
					c0,0.43-0.02,0.88-0.01,1.3l0.04,1.21c0.05,0.8,0,1.62,0.15,2.42l0.32,2.4l0.55,2.36c0.86,3.12,2.21,6.11,3.96,8.88l1.39,2.02
					l1.57,1.9c0.51,0.66,1.14,1.19,1.7,1.8c0.3,0.29,0.57,0.61,0.88,0.87l0.95,0.8c2.55,2.11,5.41,3.98,8.58,5.2
					C506.03,583.41,509.41,584.15,512.86,584.4z"/>
			</g>
			<path class="st8" d="M645.25,395.33c4.09-20.51-8.98-44.02-8.98-44.02c-33.55-54.81-123.4-53.26-123.4-53.26
				s-89.85-1.55-123.4,53.26c0,0-13.08,23.5-8.98,44.02c4.09,20.51-35.26,86.37,8.98,123.08c44.24,36.71,123.4,33.99,123.4,33.99
				s79.16,2.72,123.4-33.99C680.51,481.7,641.15,415.84,645.25,395.33z"/>
			<g>
				<path class="st4" d="M545.12,548.43c4.32,0.12,8.61-0.15,12.87-0.68c2.13-0.24,4.26-0.57,6.36-1c1.05-0.22,2.11-0.41,3.15-0.66
					l3.13-0.76c4.17-1,8.3-2.12,12.4-3.36c4.09-1.26,8.11-2.69,12.1-4.18c7.97-2.99,15.8-6.23,23.39-10.03
					c1.92-0.9,3.75-1.98,5.63-2.96c1.87-1.01,3.63-2.19,5.46-3.28c1.8-1.13,3.49-2.42,5.25-3.62c0.9-0.59,1.65-1.32,2.48-1.99
					c0.8-0.7,1.65-1.34,2.4-2.08c0.75-0.75,1.48-1.51,2.22-2.28c0.36-0.39,0.76-0.75,1.09-1.16l1-1.24
					c0.67-0.82,1.34-1.65,1.95-2.51c0.58-0.89,1.15-1.78,1.7-2.69c0.27-0.46,0.59-0.88,0.8-1.37l0.69-1.43
					c0.44-0.96,0.96-1.89,1.3-2.89l1.09-2.97c0.38-0.98,0.59-2.02,0.89-3.03c0.64-2,0.97-4.08,1.49-6.11
					c0.31-2.08,0.79-4.12,0.95-6.22c0.52-4.17,0.58-8.4,0.44-12.61c-0.26-8.45-1.62-16.88-3.35-25.24
					c-1.76-8.37-4.05-16.65-6.11-25.07c-1.02-4.22-2.01-8.47-2.61-12.9l-0.21-1.67l-0.11-1.71c-0.11-1.12-0.02-2.32-0.01-3.48
					c0.15-1.21,0.33-2.48,0.48-3.41c0.14-1.02,0.36-2.02,0.43-3.04c0.42-4.1,0.13-8.29-0.46-12.43c-0.62-4.14-1.62-8.25-2.92-12.27
					c-1.3-4.02-2.89-7.97-4.7-11.78l-0.7-1.41l-0.34-0.65l-0.42-0.65l-1.73-2.63c-1.09-1.79-2.47-3.4-3.73-5.1
					c-0.33-0.41-0.63-0.85-0.98-1.25l-1.05-1.19l-2.1-2.37c-1.43-1.55-2.99-2.99-4.48-4.5c-1.6-1.38-3.17-2.81-4.81-4.15l-2.52-1.95
					c-0.83-0.66-1.68-1.3-2.56-1.89c-13.91-9.81-30.03-16.31-46.59-20.58c-8.29-2.16-16.73-3.76-25.23-4.89
					c-8.5-1.09-17.09-1.82-25.64-1.78c-8.55,0.04-17.13,0.73-25.61,2c-8.47,1.35-16.85,3.16-25.05,5.5
					c-8.21,2.29-16.32,4.9-24.19,8.1c-1.95,0.82-3.95,1.56-5.86,2.49l-2.9,1.33c-0.97,0.44-1.9,0.95-2.85,1.42
					c-0.94,0.49-1.9,0.95-2.84,1.45l-2.77,1.58c-1.88,1-3.61,2.23-5.4,3.38c-0.9,0.56-1.76,1.18-2.61,1.82l-2.57,1.89
					c-1.69,1.29-3.26,2.72-4.89,4.08c-1.51,1.48-3.09,2.91-4.56,4.44l-2.14,2.35c-0.72,0.78-1.44,1.56-2.07,2.41
					c-1.29,1.68-2.71,3.28-3.83,5.07l-1.78,2.62l-0.45,0.66l-0.36,0.66l-0.73,1.41c-1.89,3.81-3.54,7.75-4.91,11.79
					c-1.36,4.04-2.41,8.18-3.08,12.37c-0.64,4.19-1,8.45-0.61,12.65c0.19,2.13,0.58,4.07,0.83,6.43c0.08,2.25-0.03,4.47-0.37,6.63
					c-0.61,4.34-1.64,8.56-2.64,12.76c-2.09,8.39-4.16,16.75-5.93,25.15c-0.83,4.21-1.69,8.41-2.33,12.65
					c-0.65,4.23-1.24,8.49-1.32,12.77c-0.11,4.28,0.1,8.57,0.88,12.76c0.32,2.11,0.92,4.15,1.41,6.2l0.97,3.01
					c0.17,0.5,0.3,1.01,0.49,1.5l0.58,1.46c1.43,3.93,3.3,7.67,5.42,11.24c0.57,0.87,1.11,1.76,1.66,2.65
					c0.58,0.87,1.24,1.68,1.85,2.52c1.16,1.75,2.63,3.25,3.98,4.86c0.69,0.8,1.49,1.48,2.23,2.24c0.77,0.72,1.48,1.51,2.31,2.18
					c1.64,1.35,3.23,2.78,4.93,4.07l2.61,1.86c0.88,0.61,1.72,1.28,2.65,1.8l2.74,1.67c0.92,0.55,1.82,1.13,2.78,1.6
					c7.52,4.1,15.45,7.44,23.6,10.1c16.3,5.36,33.33,8.27,50.4,9.49l0.01,0c1.33,0.09,2.33,1.25,2.23,2.58
					c-0.1,1.33-1.25,2.33-2.58,2.23c-0.06,0-0.13-0.01-0.19-0.02c-17.21-2.58-34.26-6.27-50.63-12.1
					c-8.17-2.94-16.17-6.4-23.75-10.66c-1.9-1.05-3.75-2.2-5.62-3.3c-1.86-1.12-3.66-2.36-5.49-3.53c-1.83-1.19-3.56-2.52-5.35-3.78
					c-0.9-0.62-1.7-1.39-2.56-2.08c-0.83-0.72-1.73-1.39-2.51-2.16c-6.49-6-11.66-13.75-14.07-22.34c-0.7-2.11-1.03-4.32-1.47-6.48
					c-0.27-2.19-0.64-4.36-0.72-6.56c-0.22-2.18-0.22-4.37-0.32-6.54c-0.03-1.09,0.02-2.18,0-3.26l-0.01-1.63l0.06-1.63
					c0.07-4.35,0.41-8.68,0.86-13c0.49-4.32,1.25-8.59,2.16-12.83c1.79-8.48,4.27-16.77,6.35-25.13c1.04-4.17,2-8.37,2.56-12.58
					c0.32-2.1,0.39-4.21,0.3-6.27c-0.21-1.93-0.67-4.23-0.88-6.39c-0.44-4.4-0.11-8.81,0.52-13.14c0.65-4.33,1.71-8.58,3.04-12.74
					c1.33-4.16,2.94-8.22,4.81-12.17c0.24-0.49,0.47-0.99,0.73-1.48l0.4-0.77l0.45-0.69l1.8-2.76c1.14-1.89,2.57-3.55,3.87-5.32
					c0.64-0.89,1.37-1.71,2.09-2.53l2.17-2.47c1.48-1.61,3.08-3.11,4.62-4.67c1.65-1.44,3.27-2.92,4.96-4.31l2.57-2.04
					c0.85-0.69,1.72-1.36,2.62-1.98c1.79-1.26,3.56-2.56,5.42-3.72l2.76-1.79c0.93-0.57,1.89-1.11,2.83-1.66
					c0.95-0.54,1.88-1.13,2.86-1.63l2.92-1.52c1.93-1.05,3.94-1.91,5.92-2.86c7.99-3.61,16.38-6.25,24.87-8.24
					c8.51-1.96,17.14-3.22,25.77-4.14c4.32-0.45,8.64-0.84,12.97-1.12c4.33-0.29,8.67-0.49,13.02-0.45
					c17.39,0.23,34.68,2.4,51.55,6.57c16.83,4.19,33.32,10.64,47.76,20.61c0.92,0.59,1.79,1.25,2.66,1.92l2.62,1.99
					c1.71,1.37,3.35,2.83,5.02,4.25c1.56,1.54,3.19,3.02,4.7,4.63l2.21,2.45l1.11,1.23c0.36,0.41,0.69,0.86,1.03,1.29
					c1.34,1.75,2.78,3.41,3.96,5.3l1.85,2.76l0.46,0.7l0.42,0.78l0.75,1.48c1.93,3.96,3.61,8.02,5.01,12.19
					c1.39,4.17,2.49,8.46,3.18,12.85c0.67,4.38,1.03,8.86,0.64,13.36c-0.06,1.12-0.29,2.24-0.43,3.37c-0.19,1.2-0.26,2.07-0.39,3
					c-0.04,1.96,0.04,3.98,0.39,6.04c0.58,4.12,1.58,8.28,2.61,12.43c2.1,8.31,4.36,16.69,6.16,25.21c1.79,8.52,3.12,17.2,3.3,26.01
					c0.07,4.4-0.1,8.82-0.74,13.21c-0.24,2.2-0.74,4.37-1.18,6.54c-0.62,2.13-1.15,4.29-2.05,6.33c-0.44,1.02-0.78,2.07-1.3,3.06
					l-1.48,2.97c-0.23,0.5-0.53,0.97-0.81,1.44l-0.84,1.42c-0.57,0.94-1.09,1.91-1.74,2.8c-0.63,0.9-1.24,1.81-1.83,2.73
					c-0.64,0.89-1.35,1.73-2,2.61c-1.25,1.81-2.86,3.32-4.28,5c-6.12,6.33-13.11,11.68-20.6,16.29
					c-7.52,4.55-15.62,8.09-23.96,10.71c-4.18,1.3-8.41,2.39-12.65,3.37c-4.24,1-8.5,1.89-12.78,2.63l-6.42,1.05
					c-1.07,0.16-2.14,0.37-3.2,0.56c-1.07,0.18-2.14,0.37-3.2,0.58c-4.26,0.84-8.53,1.61-12.78,2.71c-1.3,0.34-2.63-0.44-2.97-1.74
					c-0.34-1.3,0.44-2.63,1.74-2.97c0.22-0.06,0.45-0.08,0.67-0.08L545.12,548.43z"/>
			</g>
			<path class="st9" d="M348.63,416.83c0,0-26.11-27.45-28.95-86.17c-2.84-58.72,48.56-169.26,142.97-152.1
				c0,0,108.49-59.82,183.82,16.51c112.07,113.55,27.12,226.58,27.12,226.58s-16.78,17.82-26.39,0
				c-9.62-17.82-6.15-36.42-6.15-36.42s-13.01,4.12-19.8-22.88c0,0-11.4,12.41-11.4,33.82c0,0-19.28-11.08-25.71-25.26
				c-4.42,6.52-5.81,25.95-4.21,32.96c0,0-17.37-15.44-20.77-30.98c0,0-5.93,16.65,3.5,27.51c-11.63,0-27.79-17.71-31.19-27.51
				c0,0,7.2,26.2,3.08,25.79c-35.55-3.49-64.53-19.15-69.62-101.71c0,0,2.27,75.06-30.9,83.59c0,0,6.57-9.18,6.57-20.75
				c0,0-19.44,35.73-56.47,38.21c0,0,3.73,16.98-6.72,17.7C366.93,416.43,348.63,416.83,348.63,416.83z"/>
			<path class="st10" d="M462.65,178.56c-94.41-17.16-145.81,93.38-142.97,152.1c0.28,5.84,0.8,11.35,1.5,16.58
				c5.35,25.73,21.74,35.59,42.98,37.65c52.83,5.11,73.59-81.97,73.59-81.97s13,1.16,0,46.91c0,0,27.34-18.53,27.15-52.85
				c0,0,14.01,33.8,48.34,45.03c5.97,1.95,12.27,2.72,18.54,2.4c10.56-0.53,29.59-2.27,40.78-8.03c5.04-2.59,11.22-1.06,14.23,3.74
				c0.08,0.12,0.15,0.24,0.23,0.36c4.71,7.4,15.64,6.72,19.5-1.15c2.3-4.68,5.82-10.21,11.17-16.43c0,0,13.64,47.77,39.29,43.75
				c0,0,15.25,21.11,35.86,17.92c16.12-42.53,26.24-115.9-46.39-189.49C571.14,118.73,462.65,178.56,462.65,178.56z"/>
			<g>
				<path class="st4" d="M347.47,419.61c-0.3-0.14-0.6-0.34-0.86-0.57c-0.34-0.32-0.27-0.29-0.3-0.31l-0.11-0.15l-0.21-0.29
					l-0.4-0.57l-0.76-1.13c-0.5-0.75-0.98-1.5-1.45-2.26c-0.95-1.5-1.84-3.03-2.72-4.55c-1.74-3.05-3.37-6.14-4.89-9.27
					c-3.06-6.25-5.73-12.65-8.11-19.16c-4.68-13.01-8.84-26.43-10.56-40.32c-0.2-1.73-0.4-3.47-0.55-5.21l-0.35-5.23
					c-0.16-3.56-0.07-7.1,0.21-10.62c0.54-7.04,1.93-13.93,3.66-20.68c0.88-3.37,1.86-6.71,2.86-10.03c1.05-3.31,2.11-6.6,3.22-9.87
					c2.24-6.54,4.6-13.04,7.3-19.41c5.36-12.74,11.64-25.21,19.56-36.77c7.89-11.55,17.63-22.07,29.22-30.32
					c11.51-8.29,24.82-14.34,38.78-17.05c6.98-1.35,14.08-1.93,21.13-1.67c7.04,0.29,14.01,1.28,20.75,3.06l-0.88,0.14l0,0
					c8.17-4.8,16.77-8.58,25.57-11.92c8.82-3.28,17.88-5.95,27.1-7.95c18.42-4,37.62-5.22,56.42-2.59
					c9.39,1.32,18.64,3.63,27.54,6.87c8.89,3.29,17.41,7.54,25.34,12.68c3.97,2.55,7.82,5.31,11.49,8.28
					c3.69,2.94,7.24,6.06,10.59,9.38c1.71,1.64,3.32,3.32,4.97,5c1.66,1.66,3.24,3.39,4.84,5.11c1.63,1.69,3.2,3.44,4.76,5.19
					c1.58,1.74,3.11,3.52,4.64,5.31c6.1,7.16,11.89,14.64,17.03,22.59c5.16,7.94,9.59,16.39,13.25,25.16
					c0.93,2.19,1.72,4.43,2.58,6.65c0.73,2.27,1.55,4.5,2.2,6.79c1.4,4.55,2.45,9.19,3.4,13.85c0.88,4.67,1.58,9.37,2.06,14.08
					c0.46,4.72,0.78,9.44,0.91,14.17c0.57,18.91-2.18,37.81-7.71,55.77c-2.76,8.99-6.23,17.74-10.23,26.22
					c-4.07,8.47-8.62,16.65-14.15,24.36l0,0c-0.03,0.04-0.06,0.07-0.09,0.1c-2.17,2.18-4.51,3.99-7.15,5.52
					c-2.62,1.49-5.58,2.66-8.79,2.73c-1.59,0.03-3.22-0.26-4.72-0.88c-1.49-0.62-2.83-1.55-3.95-2.64
					c-1.13-1.09-2.08-2.32-2.87-3.62c-0.8-1.31-1.46-2.62-2.13-3.94c-1.33-2.64-2.64-5.33-3.67-8.14c-1.04-2.81-1.75-5.74-2.12-8.7
					c-0.41-2.96-0.57-5.95-0.48-8.93c0.11-2.99,0.4-5.92,1.16-8.9l1.63,1.44l-0.02,0c-0.93,0.23-1.65,0.25-2.45,0.24
					c-0.78-0.02-1.55-0.13-2.3-0.31c-1.5-0.34-2.91-0.97-4.18-1.77c-2.53-1.63-4.55-3.83-6.18-6.21c-1.63-2.39-2.94-4.95-4.08-7.55
					c-1.16-2.6-2.11-5.28-3.05-7.96l3.63,0.92l0,0c-1.01,0.8-2.04,1.97-2.93,3.1c-0.9,1.16-1.72,2.39-2.46,3.66
					c-1.47,2.56-2.69,5.29-3.38,8.18c-0.37,1.43-0.65,2.88-0.92,4.33c-0.28,1.44-0.54,2.89-0.75,4.34
					c-0.39,2.91-0.62,5.83-0.71,8.77l0,0.1c-0.03,0.99-0.85,1.76-1.83,1.73c-0.32-0.01-0.63-0.11-0.88-0.26l-0.01,0l-7.55-5.48
					c-1.26-0.9-2.47-1.85-3.77-2.72c-1.28-0.88-2.61-1.72-3.87-2.67c-1.27-0.94-2.44-1.99-3.51-3.16c-1.08-1.16-2.12-2.36-3.08-3.64
					c-1.9-2.56-3.56-5.38-4.52-8.49l2.87,0.25l0,0c-1.38,1.96-2.21,4.65-2.82,7.27c-0.62,2.65-0.99,5.39-1.22,8.14
					c-0.23,2.75-0.3,5.51-0.19,8.25c0.12,2.7,0.41,5.53,1.16,7.8c0.43,1.31-0.28,2.72-1.59,3.15c-0.81,0.26-1.65,0.1-2.28-0.38
					l-0.35-0.27l-0.01,0c-2.46-2.25-4.66-4.53-6.82-6.96c-2.15-2.41-4.19-4.93-6.08-7.57c-1.9-2.64-3.65-5.42-5.16-8.37
					c-1.5-2.95-2.75-6.09-3.51-9.45l4.95,0.31l0,0c-0.5,0.87-0.93,2.02-1.27,3.08c-0.35,1.09-0.61,2.22-0.82,3.35
					c-0.38,2.27-0.51,4.58-0.28,6.84c0.09,1.13,0.29,2.25,0.56,3.33c0.25,1.09,0.63,2.14,1.07,3.15c0.89,2.01,2.17,3.81,3.76,5.21
					c1,0.89,1.1,2.42,0.21,3.42c-0.44,0.5-1.05,0.78-1.66,0.81l-0.5,0.03l-0.01,0c-4.41-0.53-7.9-2.39-11.09-4.41
					c-3.17-2.07-6.08-4.41-8.79-6.94c-2.7-2.55-5.22-5.26-7.55-8.18c-2.32-2.94-4.5-5.96-6.19-9.71l4.92-1.53l0,0
					c0.82,3.39,1.54,6.75,2.23,10.16c0.67,3.41,1.28,6.82,1.6,10.4c0.07,0.9,0.12,1.81,0.11,2.77c-0.01,0.48-0.03,0.98-0.1,1.51
					c-0.08,0.54-0.16,1.11-0.51,1.88c-0.2,0.38-0.46,0.87-1.12,1.31c-0.33,0.21-0.71,0.36-1.09,0.41c-0.2,0.04-0.35,0.03-0.53,0.03
					c-0.22-0.01-0.24-0.02-0.3-0.02l-1.29-0.15l-2.58-0.34c-3.44-0.49-6.88-1.12-10.27-1.96c-6.79-1.64-13.45-4.19-19.43-7.94
					c-6-3.71-11.21-8.64-15.41-14.25c-4.23-5.6-7.5-11.82-10.11-18.25c-2.64-6.42-4.6-13.08-6.25-19.79
					c-3.26-13.44-5.05-27.14-6.55-40.85l5.15-0.24v0c-0.31,8.07-0.95,15.93-1.91,23.83c-0.97,7.88-2.29,15.72-4.24,23.44
					c-1.95,7.7-4.58,15.3-8.6,22.3c-1,1.75-2.08,3.47-3.32,5.09c-1.22,1.63-2.55,3.21-4.05,4.64c-2.95,2.92-6.6,5.3-10.71,6.86
					c-1.24,0.47-2.64-0.16-3.11-1.4c-0.23-0.6-0.2-1.23,0.03-1.78l0.34-0.82l0,0c0.4-0.59,0.89-1.38,1.29-2.11
					c0.42-0.75,0.81-1.52,1.19-2.3c0.75-1.56,1.38-3.17,1.92-4.81c0.54-1.63,0.96-3.3,1.23-4.98c0.32-1.68,0.4-3.37,0.45-5.06
					l4.84,1.23l0,0c-1.77,2.69-3.57,5.02-5.49,7.39c-1.93,2.33-3.91,4.6-6.01,6.76c-2.08,2.18-4.27,4.24-6.54,6.21
					c-2.26,1.99-4.63,3.84-7.1,5.56c-2.46,1.73-5,3.36-7.66,4.76c-2.64,1.45-5.37,2.74-8.17,3.87c-5.59,2.34-11.5,3.84-17.58,5
					l2.34-3.12l0,0.01c0.12,2.39,0.15,4.52,0.08,6.78c-0.1,2.24-0.33,4.51-1.07,6.81c-0.38,1.14-0.93,2.3-1.75,3.34
					c-0.81,1.04-1.92,1.93-3.16,2.47c-0.62,0.28-1.26,0.47-1.89,0.6c-0.62,0.13-1.32,0.2-1.8,0.23l-3.16,0.26l-12.59,0.9l-6.29,0.47
					l-3.15,0.24l-1.57,0.13l-0.79,0.07l-0.39,0.03l-0.1,0.01l-0.05,0l-0.02,0l-0.09,0C348.37,419.83,347.89,419.75,347.47,419.61z
					 M349.79,414.05c-0.29-0.15-0.64-0.23-0.96-0.22l-0.06,0l0.01,0l0.02,0l0.05,0l0.1,0l0.39,0.02l0.78,0.03l1.57,0.05l3.14,0.07
					c2.09,0.05,4.19,0.08,6.28,0.08c4.18,0.01,8.37-0.02,12.53-0.17l3.12-0.12c0.57-0.02,0.91-0.04,1.32-0.11
					c0.39-0.07,0.76-0.17,1.11-0.32c1.37-0.55,2.37-1.81,2.97-3.5c0.61-1.68,0.75-3.65,0.64-5.59c-0.12-1.93-0.52-3.99-1.22-5.71
					l0,0l2.34-3.12c1.41,0.01,2.85,0.11,4.27-0.02l2.14-0.15l2.13-0.3c1.43-0.16,2.81-0.56,4.23-0.84c1.38-0.39,2.78-0.75,4.13-1.26
					c5.46-1.88,10.55-4.78,15.24-8.18c4.69-3.41,8.91-7.45,12.68-11.85c1.87-2.22,3.64-4.51,5.25-6.91
					c0.81-1.19,1.59-2.41,2.31-3.65c0.72-1.22,1.43-2.53,1.99-3.71l0,0l0.04-0.08c0.69-1.23,2.25-1.68,3.48-0.99
					c0.86,0.48,1.33,1.38,1.31,2.3c-0.05,1.99-0.16,3.98-0.52,5.92c-0.32,1.95-0.8,3.86-1.41,5.71c-0.6,1.86-1.32,3.68-2.16,5.43
					c-0.42,0.88-0.87,1.75-1.35,2.6c-0.49,0.87-0.96,1.66-1.6,2.58l0,0l-2.74-3.99c3.53-0.4,6.95-1.97,9.9-4.26
					c2.94-2.31,5.42-5.29,7.44-8.55c2.04-3.27,3.62-6.83,4.95-10.47c1.32-3.65,2.44-7.39,3.31-11.19c1.76-7.6,2.8-15.37,3.34-23.17
					c0.26-3.9,0.42-7.81,0.43-11.71c0.02-3.89-0.09-7.84-0.39-11.65v0l0.01-0.26c0.04-1.42,1.22-2.54,2.64-2.5
					c1.38,0.04,2.48,1.16,2.5,2.53c0.24,13.6,1.51,27.21,4.42,40.47c1.44,6.63,3.39,13.14,5.91,19.4c2.55,6.24,5.74,12.23,9.8,17.55
					c4.05,5.32,9.03,9.88,14.72,13.31c5.69,3.45,12.04,5.72,18.57,7.16c3.27,0.71,6.6,1.23,9.95,1.6l2.52,0.26l1.26,0.11
					c0.21,0.02-0.07-0.02-0.19,0.01c-0.17,0.02-0.35,0.09-0.5,0.19c-0.29,0.2-0.32,0.31-0.33,0.32c0,0,0.08-0.29,0.09-0.6
					c0.03-0.32,0.03-0.68,0.02-1.05c-0.02-0.75-0.09-1.55-0.19-2.35c-0.41-3.23-1.14-6.55-1.92-9.83c-0.78-3.28-1.69-6.57-2.65-9.79
					l0,0l-0.08-0.42c-0.25-1.39,0.67-2.72,2.07-2.97c1.32-0.24,2.59,0.59,2.93,1.87c0.8,3.04,2.57,6.16,4.53,9.01
					c2,2.86,4.29,5.55,6.8,8c2.52,2.43,5.25,4.67,8.25,6.34c1.49,0.84,3.04,1.54,4.62,1.99c1.56,0.45,3.16,0.65,4.56,0.45l0,0
					l-1.95,4.26c-1.54-2.26-2.78-4.66-3.59-7.17c-0.83-2.5-1.27-5.06-1.48-7.6c-0.17-2.55-0.14-5.08,0.08-7.6
					c0.09-1.26,0.23-2.52,0.39-3.78c0.17-1.29,0.34-2.48,0.61-3.9l0-0.01c0.47-1.34,1.94-2.05,3.28-1.58
					c0.87,0.3,1.47,1.02,1.66,1.86l0.01,0.03c1.26,5.61,4.29,10.98,7.82,15.91c1.78,2.47,3.71,4.86,5.75,7.15
					c2.03,2.28,4.21,4.53,6.4,6.53l0,0l-4.22,2.5c-0.21-1.64-0.26-3.12-0.25-4.61c0-1.48,0.06-2.93,0.14-4.37
					c0.16-2.88,0.45-5.73,0.82-8.57c0.38-2.84,0.88-5.66,1.52-8.49c0.33-1.41,0.72-2.81,1.21-4.22c0.48-1.41,1.06-2.8,1.91-4.2
					l0-0.01c0.36-0.74,1.25-1.06,1.99-0.7c0.25,0.12,0.45,0.3,0.6,0.52l0.28,0.43c0.8,1.21,1.61,2.39,2.47,3.55
					c0.87,1.15,1.78,2.27,2.71,3.38c0.95,1.1,1.92,2.18,2.92,3.24c1.02,1.05,2.02,2.12,2.98,3.25c0.97,1.12,1.94,2.28,3,3.33
					c1.05,1.08,2.23,2,3.41,2.92c2.38,1.8,4.93,3.48,7.6,4.7l0.01,0l-2.72,1.57c-0.07-3.12,0.16-6.26,0.7-9.34
					c0.49-3.09,1.39-6.11,2.58-9c1.19-2.88,2.36-5.74,3.71-8.55c0.67-1.4,1.39-2.79,2.15-4.17c0.78-1.4,1.52-2.71,2.5-4.19
					l0.01-0.01l0.2-0.2c0.8-0.79,2.08-0.78,2.87,0.02c0.31,0.31,0.5,0.7,0.56,1.1c0.43,2.67,1.08,5.29,1.92,7.84
					c0.87,2.53,1.91,5.02,3.33,7.24c1.41,2.21,3.1,4.27,5.24,5.63c1.06,0.67,2.2,1.21,3.41,1.47c0.6,0.13,1.2,0.2,1.81,0.21
					c0.57,0.01,1.25-0.07,1.66-0.2l0,0l1.63,1.44c-0.3,5.56-0.07,11.28,0.73,16.82c0.43,2.77,0.93,5.53,1.51,8.29
					c0.58,2.76,1.33,5.51,2.48,8.1c1.16,2.61,2.54,5.05,4.48,6.89c0.96,0.92,2.06,1.66,3.25,2.14c1.19,0.48,2.47,0.7,3.78,0.67
					c2.62-0.07,5.23-1.08,7.62-2.47c2.37-1.39,4.64-3.18,6.54-5.12l-0.09,0.11c2.65-3.68,5.04-7.69,7.29-11.71
					c2.25-4.04,4.31-8.17,6.24-12.37c3.85-8.4,7.02-17.11,9.53-25.98c2.49-8.88,4.35-17.93,5.39-27.07
					c0.53-4.57,0.87-9.16,1.03-13.75c0.13-4.59,0.07-9.18-0.2-13.76c-0.27-4.58-0.83-9.13-1.55-13.65
					c-0.75-4.52-1.72-8.99-2.83-13.41c-2.32-8.83-5.21-17.48-8.69-25.91c-6.97-16.82-15.95-32.95-27.06-47.7l-2.09-2.76
					c-0.7-0.92-1.45-1.79-2.18-2.69c-1.46-1.79-2.92-3.58-4.46-5.3c-1.53-1.73-3.06-3.47-4.66-5.13c-1.59-1.68-3.14-3.4-4.81-4.98
					c-6.54-6.46-13.75-12.25-21.54-17.09c-3.87-2.46-7.92-4.63-12.07-6.57c-4.15-1.94-8.39-3.68-12.72-5.14
					c-8.67-2.92-17.65-4.89-26.74-5.94c-18.19-2.09-36.67-0.75-54.68,2.82c-9.01,1.79-17.93,4.13-26.7,6.97
					c-8.76,2.82-17.47,6.09-25.79,9.94l0,0c-0.2,0.13-0.43,0.19-0.65,0.17l-0.23-0.02c-6.78-0.64-13.53-0.88-20.21-0.47
					c-6.69,0.35-13.27,1.47-19.7,3.05c-12.82,3.36-24.87,9.2-35.58,16.99c-10.69,7.83-20.37,17.14-28.94,27.54
					c-8.58,10.38-16.04,21.88-21.78,34.24c-2.88,6.17-5.36,12.54-7.35,19.06c-1.95,6.53-3.34,13.21-4.25,19.93
					c-0.46,3.36-0.78,6.73-1.07,10.08c-0.25,3.36-0.39,6.71-0.48,10.05c-0.06,3.34-0.07,6.66,0.1,9.96l0.27,5.05l0.33,5.05
					c0.49,6.73,1.04,13.48,2.08,20.18c1.02,6.7,2.49,13.37,4.64,19.81c2.17,6.44,4.88,12.71,8.25,18.58
					c1.69,2.93,3.52,5.78,5.53,8.48c1.01,1.34,2.07,2.65,3.16,3.9c0.56,0.62,1.12,1.23,1.69,1.82l0.87,0.85l0.44,0.4l0.22,0.19
					l0.11,0.09c0.01,0.01,0.11,0.09-0.19-0.19C350.31,414.3,350.05,414.15,349.79,414.05z"/>
			</g>
			<path class="st8" d="M629.9,437.17c0-20.06,17.99-29.06,35.81-29.06s32.27,16.26,32.27,36.32c0,20.06-14.45,36.32-32.27,36.32
				S629.9,457.23,629.9,437.17z"/>
			<path class="st8" d="M395.82,437.17c0-20.06-17.99-29.06-35.81-29.06c-17.82,0-32.27,16.26-32.27,36.32
				c0,20.06,14.45,36.32,32.27,36.32C377.83,480.75,395.82,457.23,395.82,437.17z"/>
			<g>
				<path class="st7" d="M366.61,439.72c-2.35-4.74-5.62-8.26-9.6-9.3c-5.51-3.26-12.65-1.76-14.71,7.49
					c-1.49,6.71,0.89,13.79,3.63,19.18c2.82,5.55,6.53,11.07,11.51,12.17c5.48,1.21,10.43-4.17,11.71-11.68
					C370.18,451.53,369.12,444.78,366.61,439.72z"/>
			</g>
			<g>
				<path class="st7" d="M658.15,436.12c2.35-4.74,5.62-8.26,9.6-9.3c5.51-3.26,12.65-1.76,14.71,7.49
					c1.49,6.71-0.89,13.79-3.63,19.18c-2.82,5.55-6.53,11.07-11.51,12.17c-5.48,1.21-10.43-4.17-11.71-11.68
					C654.58,447.92,655.64,441.18,658.15,436.12z"/>
			</g>
			<g>
				<path class="st4" d="M369.24,480.25c-2.95,0.96-6.02,1.57-9.13,1.53c-3.05-0.07-6.1-0.49-9.02-1.38
					c-2.92-0.89-5.72-2.14-8.41-3.66c-2.66-1.54-5.22-3.39-7.36-5.68c-1.1-1.12-2.04-2.37-2.93-3.65c-0.83-1.32-1.66-2.65-2.32-4.06
					c-1.36-2.8-2.31-5.79-2.89-8.82c-0.6-3.03-0.81-6.1-0.8-9.15c0-1.52,0.1-3.04,0.21-4.56c0.16-1.51,0.34-3.03,0.62-4.52
					c0.57-2.99,1.38-5.95,2.55-8.8c1.15-2.85,2.59-5.6,4.4-8.14c1.78-2.56,3.95-4.87,6.41-6.86c2.47-1.97,5.25-3.59,8.25-4.7
					c3-1.11,6.21-1.56,9.36-1.52c3.17,0.1,6.1,0.48,9.14,0.96c2.98,0.49,5.93,1.09,8.87,1.92c2.93,0.88,5.88,1.84,8.72,3.81
					l0.02,0.01c0.91,0.63,1.14,1.88,0.51,2.78c-0.63,0.91-1.88,1.14-2.78,0.51c-0.12-0.08-0.23-0.18-0.33-0.29
					c-1.7-1.84-4.36-3.11-7.02-4.04c-2.69-0.93-5.54-1.54-8.4-1.92c-2.79-0.39-5.79-0.32-8.51,0.05c-2.74,0.44-5.37,1.17-7.88,2.2
					c-5.07,1.93-9.63,5.24-13.27,9.47c-3.67,4.21-6.3,9.46-7.46,15.05c-1.21,5.58-0.86,11.5,0.82,16.88
					c1.64,5.41,4.36,10.35,7.77,14.72c1.7,2.2,3.6,4.29,5.8,6.08c2.22,1.76,4.76,3.15,7.48,4c0.67,0.24,1.37,0.4,2.05,0.59
					c0.7,0.13,1.39,0.31,2.1,0.39c1.41,0.24,2.84,0.28,4.26,0.28c2.8-0.07,5.58-0.79,8.11-2.04c0.68-0.34,1.51-0.06,1.85,0.63
					c0.34,0.68,0.06,1.51-0.63,1.85c-0.06,0.03-0.12,0.05-0.18,0.07L369.24,480.25z"/>
			</g>
			<g>
				<g>
					<ellipse class="st11" cx="448.44" cy="436.53" rx="26.5" ry="34.83"/>
					<path class="st12" d="M419.09,436.53c0-21.31,13.14-38.58,29.35-38.58c12.79,0,23.68,10.76,27.69,25.77"/>
					<ellipse class="st4" cx="448.44" cy="436.53" rx="21.97" ry="28.88"/>
					<ellipse class="st13" cx="443.24" cy="440.5" rx="11.51" ry="15.13"/>
					<path class="st11" d="M444.46,421.59c0,5.13-3.16,9.29-7.07,9.29c-3.9,0-7.07-4.16-7.07-9.29c0-5.13,3.16-9.29,7.07-9.29
						C441.3,412.3,444.46,416.46,444.46,421.59z"/>
					<path class="st11" d="M433.87,433.7c0,1.56-0.96,2.82-2.14,2.82c-1.18,0-2.14-1.26-2.14-2.82c0-1.56,0.96-2.82,2.14-2.82
						C432.91,430.88,433.87,432.15,433.87,433.7z"/>
				</g>
				<g>
					<ellipse class="st11" cx="577.28" cy="436.53" rx="26.5" ry="34.83"/>
					<path class="st12" d="M606.63,436.53c0-21.31-13.14-38.58-29.35-38.58c-12.79,0-23.68,10.76-27.69,25.77"/>
					<ellipse class="st4" cx="577.28" cy="436.53" rx="21.97" ry="28.88"/>
					<ellipse class="st13" cx="582.48" cy="440.5" rx="11.51" ry="15.13"/>
					<ellipse class="st11" cx="588.32" cy="421.59" rx="7.07" ry="9.29"/>
					<path class="st11" d="M591.85,433.7c0,1.56,0.96,2.82,2.14,2.82c1.18,0,2.14-1.26,2.14-2.82c0-1.56-0.96-2.82-2.14-2.82
						C592.81,430.88,591.85,432.15,591.85,433.7z"/>
				</g>
			</g>
			<path class="st7" d="M510.73,446.7l-6.84,10.48c-0.78,1.2-0.42,2.8,0.79,3.56l0,0c5.01,3.1,11.34,3.1,16.35,0l0,0
				c1.22-0.75,1.57-2.36,0.79-3.56l-6.84-10.48C513.99,445.16,511.73,445.16,510.73,446.7z"/>
			<path class="st14" d="M483.77,479.03c0,0,12.38,19.46,45.4,14.74"/>
			<g>
				<g>
					<path class="st15" d="M405.22,499.83c0.69-1.07,1.43-2.11,2.19-3.14c0.26-0.35-0.14,0.18,0.1-0.13c0.1-0.13,0.2-0.25,0.3-0.38
						c0.2-0.25,0.4-0.5,0.6-0.74c0.42-0.51,0.86-1.01,1.3-1.51c1.73-1.92,3.6-3.69,5.61-5.32c0.75-0.61,0.68-1.98,0-2.61
						c-0.8-0.73-1.81-0.65-2.61,0c-4.17,3.38-7.77,7.45-10.68,11.96c-0.52,0.81-0.19,2.07,0.66,2.52
						C403.61,500.97,404.66,500.69,405.22,499.83L405.22,499.83z"/>
					<path class="st15" d="M434.15,499.83c0.69-1.07,1.43-2.11,2.19-3.14c0.26-0.35-0.14,0.18,0.1-0.13c0.1-0.13,0.2-0.25,0.3-0.38
						c0.2-0.25,0.4-0.5,0.6-0.74c0.42-0.51,0.86-1.01,1.3-1.51c1.73-1.92,3.6-3.69,5.61-5.32c0.75-0.61,0.68-1.98,0-2.61
						c-0.8-0.73-1.81-0.65-2.61,0c-4.17,3.38-7.77,7.45-10.68,11.96c-0.52,0.81-0.19,2.07,0.66,2.52
						C432.54,500.97,433.59,500.69,434.15,499.83L434.15,499.83z"/>
					<path class="st15" d="M415.71,503.75c4.01-5.16,8.5-9.94,13.4-14.27c1.4-1.24,2.83-2.43,4.3-3.59c0.76-0.6,0.68-1.99,0-2.61
						c-0.81-0.74-1.8-0.64-2.61,0c-5.12,4.06-9.86,8.59-14.15,13.53c-1.22,1.41-2.41,2.86-3.55,4.33c-0.31,0.4-0.54,0.77-0.54,1.3
						c0,0.45,0.2,0.99,0.54,1.3C413.76,504.36,415.08,504.56,415.71,503.75L415.71,503.75z"/>
				</g>
				<g>
					<path class="st15" d="M584.36,499.83c0.69-1.07,1.43-2.11,2.19-3.14c0.26-0.35-0.14,0.18,0.1-0.13c0.1-0.13,0.2-0.25,0.3-0.38
						c0.2-0.25,0.4-0.5,0.6-0.74c0.42-0.51,0.86-1.01,1.3-1.51c1.73-1.92,3.6-3.69,5.61-5.32c0.75-0.61,0.68-1.98,0-2.61
						c-0.8-0.73-1.81-0.65-2.61,0c-4.17,3.38-7.77,7.45-10.68,11.96c-0.52,0.81-0.19,2.07,0.66,2.52
						C582.76,500.97,583.81,500.69,584.36,499.83L584.36,499.83z"/>
					<path class="st15" d="M613.29,499.83c0.69-1.07,1.43-2.11,2.19-3.14c0.26-0.35-0.14,0.18,0.1-0.13c0.1-0.13,0.2-0.25,0.3-0.38
						c0.2-0.25,0.4-0.5,0.6-0.74c0.42-0.51,0.86-1.01,1.3-1.51c1.73-1.92,3.6-3.69,5.61-5.32c0.75-0.61,0.68-1.98,0-2.61
						c-0.8-0.73-1.81-0.65-2.61,0c-4.17,3.38-7.77,7.45-10.68,11.96c-0.52,0.81-0.19,2.07,0.66,2.52
						C611.69,500.97,612.73,500.69,613.29,499.83L613.29,499.83z"/>
					<path class="st15" d="M594.85,503.75c4.01-5.16,8.5-9.94,13.4-14.27c1.4-1.24,2.83-2.43,4.3-3.59c0.76-0.6,0.68-1.99,0-2.61
						c-0.81-0.74-1.8-0.64-2.61,0c-5.12,4.06-9.86,8.59-14.15,13.53c-1.22,1.41-2.41,2.86-3.55,4.33c-0.31,0.4-0.54,0.77-0.54,1.3
						c0,0.45,0.2,0.99,0.54,1.3C592.91,504.36,594.22,504.56,594.85,503.75L594.85,503.75z"/>
				</g>
			</g>
			<g>
				<path class="st4" d="M367.1,479.3c-0.19-1.32-0.36-2.65-0.42-3.97c-0.08-1.32-0.09-2.64-0.05-3.95
					c0.04-1.31,0.12-2.61,0.25-3.91c0.14-1.3,0.31-2.57,0.56-3.9l0.01-0.04c0.02-0.13,0.08-0.25,0.15-0.35h0
					c0.53-1.89,1.09-3.69,1.31-5.68c0.21-1.97,0.18-3.98-0.05-5.98c-0.44-3.99-1.59-7.93-3.46-11.45c-1.82-3.51-4.45-6.72-8.04-8.48
					c-3.56-1.77-7.91-1.93-11.68-0.43c-0.86,0.34-1.83-0.08-2.17-0.94c-0.34-0.86,0.08-1.83,0.94-2.17c0.15-0.06,0.31-0.1,0.47-0.11
					l0.05,0c4.51-0.39,9.14-0.32,13.38,1.49c4.24,1.74,7.79,5.03,10.12,8.93c2.31,3.93,3.6,8.35,3.98,12.84
					c0.16,2.25,0.1,4.53-0.3,6.78c-0.41,2.22-1.04,4.62-2.85,6.32l0,0l0.15-0.39c-0.13,1.2-0.19,2.47-0.22,3.71
					c-0.03,1.25,0,2.49,0.07,3.73c0.07,1.24,0.19,2.47,0.36,3.69c0.16,1.22,0.42,2.42,0.69,3.6l0.01,0.05
					c0.21,0.89-0.35,1.78-1.24,1.99c-0.89,0.21-1.78-0.35-1.99-1.24C367.12,479.39,367.11,479.34,367.1,479.3z"/>
			</g>
			<g>
				<path class="st4" d="M408.25,390.11c2.36-2.28,4.61-4.8,6.81-7.29c2.14-2.56,4.27-5.13,6.24-7.81
					c3.95-5.35,7.92-10.77,10.96-16.75c0.81-1.47,1.49-3,2.12-4.55c0.62-1.56,1.27-3.1,1.65-4.74c0.44-1.62,0.85-3.24,1.36-4.82
					c0.5-1.58,0.9-3.2,1.43-4.77l0.74-2.38c0.12-0.4,0.26-0.79,0.37-1.19l0.3-1.21c0.4-1.61,0.81-3.23,1.26-4.84
					c0.48-1.6,0.75-3.25,1.12-4.88c0.36-1.64,0.73-3.27,1.16-4.91l0.02-0.08c0.15-0.56,0.72-0.89,1.27-0.74
					c0.48,0.13,0.79,0.56,0.77,1.03c-0.05,1.71-0.16,3.42-0.28,5.14c-0.15,1.71-0.2,3.44-0.56,5.13c-0.58,3.39-1.15,6.8-2.19,10.09
					c-0.24,0.83-0.45,1.66-0.71,2.49c-0.25,0.83-0.49,1.65-0.86,2.44c-0.67,1.59-1.44,3.14-2.17,4.7l-0.55,1.16l-0.62,1.13
					c-0.39,0.76-0.8,1.52-1.16,2.3c-0.38,0.77-0.73,1.55-1.08,2.33c-0.33,0.79-0.78,1.52-1.15,2.29
					c-2.95,6.17-6.3,12.22-10.49,17.67c-4.22,5.43-8.93,10.47-14.6,14.53c-0.42,0.3-1,0.2-1.3-0.22c-0.27-0.38-0.22-0.9,0.11-1.21
					L408.25,390.11z"/>
			</g>
			<g>
				<path class="st4" d="M350.51,439.22c0.52,0.01,0.85,0.02,1.24,0.07c0.38,0.05,0.74,0.11,1.1,0.2c0.36,0.07,0.72,0.17,1.06,0.29
					c0.34,0.12,0.7,0.21,1.02,0.37c0.66,0.29,1.32,0.59,1.92,0.98c0.63,0.35,1.21,0.77,1.77,1.2c2.28,1.71,4.21,3.8,5.77,6.08
					l1.09,1.76c0.37,0.58,0.62,1.22,0.94,1.82c0.65,1.2,1.06,2.49,1.53,3.75c0.45,1.26,0.7,2.58,1.04,3.85
					c0.23,1.3,0.43,2.6,0.61,3.9c0.09,0.64-0.36,1.24-1.01,1.33c-0.56,0.08-1.09-0.26-1.27-0.77l-0.03-0.08l-1.24-3.5
					c-0.52-1.11-0.95-2.25-1.51-3.33c-1.1-2.15-2.36-4.16-3.86-5.94c-1.52-1.75-3.22-3.3-5.11-4.49l-0.71-0.44l-0.73-0.39
					c-0.48-0.28-0.98-0.5-1.46-0.77l-1.46-0.73l-0.72-0.36l-0.35-0.18c-0.1-0.05-0.24-0.13-0.27-0.17l-0.98-1.46
					c-0.59-0.88-0.36-2.07,0.52-2.67C349.74,439.32,350.13,439.21,350.51,439.22z"/>
			</g>
			<g>
				<path class="st4" d="M675.13,435.51c-0.03,0.04-0.17,0.12-0.27,0.17l-0.35,0.18l-0.72,0.36l-1.46,0.73
					c-0.48,0.27-0.98,0.49-1.46,0.77l-0.73,0.39l-0.71,0.44c-1.89,1.2-3.59,2.74-5.11,4.49c-1.49,1.78-2.76,3.8-3.86,5.94
					c-0.55,1.07-0.99,2.21-1.51,3.33l-1.24,3.5l-0.03,0.08c-0.22,0.61-0.89,0.94-1.5,0.72c-0.54-0.19-0.85-0.73-0.77-1.27
					c0.18-1.29,0.37-2.6,0.6-3.9c0.34-1.28,0.59-2.59,1.04-3.85c0.47-1.26,0.88-2.55,1.53-3.75c0.31-0.6,0.57-1.24,0.94-1.82
					l1.09-1.76c1.57-2.28,3.49-4.38,5.77-6.08c0.57-0.43,1.14-0.86,1.77-1.2c0.6-0.39,1.26-0.69,1.92-0.98
					c0.32-0.16,0.68-0.25,1.02-0.37c0.34-0.12,0.69-0.22,1.06-0.29c0.35-0.09,0.72-0.15,1.1-0.2c0.39-0.05,0.72-0.07,1.24-0.07
					c1.06-0.02,1.93,0.83,1.95,1.89c0.01,0.41-0.12,0.79-0.33,1.11L675.13,435.51z"/>
			</g>
			<g>
				<path class="st4" d="M657.34,454.01c1.17,3.33,2.03,6.69,2.62,10.16c0.6,3.46,0.94,7,0.72,10.64c-0.06,0.91-0.16,1.82-0.31,2.73
					c-0.07,0.46-0.17,0.92-0.26,1.37l-0.17,0.69l-0.04,0.17c-0.02,0.06-0.03,0.13-0.02,0.09c0-0.01,0.01-0.03,0.02-0.11
					c0.02-0.13-0.05-0.45-0.22-0.67c-0.17-0.22-0.27-0.26-0.27-0.26s0.29,0.08,0.59,0.1c0.63,0.06,1.44,0.02,2.24-0.03l2.58-0.2
					l2.56-0.09c1.59-0.1,3.17-0.33,4.72-0.68c3.1-0.75,6.11-1.96,8.83-3.69c2.74-1.71,5.19-3.9,7.33-6.38
					c4.24-4.98,7.21-11.17,8.35-17.78c0.56-3.3,0.69-6.7,0.31-10.04c-0.35-3.35-1.36-6.6-2.71-9.64c-1.39-3.03-3.07-5.88-5.02-8.53
					c-1.96-2.63-4.13-5.16-6.76-7.2c-2.58-2.1-5.64-3.58-8.84-4.43c-1.6-0.41-3.23-0.72-4.88-0.81c-1.64-0.1-3.28-0.04-4.96,0.12
					c-6.63,0.66-13.18,2.52-18.52,6.01c-1.19,0.78-2.79,0.44-3.57-0.75c-0.78-1.19-0.44-2.79,0.75-3.57c0.09-0.06,0.2-0.12,0.3-0.17
					c6.68-3.18,13.89-4.47,20.93-4.34c1.75,0.04,3.55,0.1,5.32,0.38c1.76,0.3,3.5,0.66,5.2,1.19c3.37,1.12,6.55,2.69,9.53,4.63
					c2.96,1.95,5.68,4.34,7.85,7.18c2.18,2.83,3.81,6.06,4.89,9.43c1.11,3.37,1.73,6.84,2.11,10.31c0.39,3.48,0.36,6.99-0.02,10.49
					c-0.76,6.97-3.27,13.9-7.68,19.59c-4.39,5.66-10.61,10.14-17.76,11.95c-1.78,0.44-3.6,0.76-5.44,0.87l-2.59,0.07l-2.55,0.17
					c-0.9,0.05-1.82,0.1-2.9,0c-0.55-0.07-1.12-0.12-1.91-0.47c-0.38-0.19-0.86-0.46-1.28-1.02c-0.43-0.56-0.6-1.32-0.57-1.88
					c0.01-0.29,0.05-0.53,0.11-0.74l0.09-0.36l0.15-0.56c0.09-0.38,0.18-0.76,0.25-1.15c0.15-0.77,0.26-1.57,0.35-2.37
					c0.62-6.45-0.23-13.3-1.47-19.89l-0.01-0.04c-0.11-0.57,0.27-1.12,0.83-1.22C656.67,453.23,657.17,453.53,657.34,454.01z"/>
			</g>
			<g>
				<path class="st4" d="M656.23,455.67c-0.86-1.8-1.43-3.69-1.9-5.62c-0.22-0.97-0.41-1.94-0.56-2.93c-0.14-0.99-0.23-1.99-0.29-3
					c-0.18-4,0.29-8.28,2.35-12.16c1.03-1.91,2.41-3.74,4.21-5.08c1.76-1.37,3.78-2.34,5.85-2.91c4.16-1.08,8.34-0.87,12.19,0.1
					c0.64,0.16,1.02,0.81,0.86,1.44c-0.13,0.53-0.61,0.89-1.13,0.9l-0.01,0c-3.77,0.07-7.43,0.42-10.66,1.55
					c-1.58,0.62-3.05,1.38-4.3,2.41c-1.23,1.04-2.3,2.27-3.09,3.74c-1.6,2.91-2.42,6.44-2.77,10.09c-0.34,3.65-0.31,7.45-0.09,11.29
					l0,0.01c0.01,0.19-0.14,0.36-0.33,0.37C656.42,455.88,656.29,455.8,656.23,455.67z"/>
			</g>
			<g>
				<path class="st4" d="M423.39,181.92c-1.25-0.83-3-1.46-4.91-1.81c-1.92-0.35-3.98-0.44-6.08-0.39
					c-4.21,0.12-8.51,0.92-12.75,1.99c-8.47,2.27-16.72,5.8-24.46,10.22c-15.52,8.81-29.24,21.01-39.74,35.6
					c-5.24,7.3-9.58,15.25-12.81,23.64c-3.17,8.4-5.24,17.2-6.07,26.09c-0.44,4.44-0.66,8.89-0.55,13.34
					c0.09,4.44,0.38,8.88,0.97,13.28c0.23,2.2,0.67,4.38,1.01,6.57c0.47,2.17,0.86,4.35,1.45,6.48c1.03,4.3,2.5,8.5,4.09,12.62
					l0.03,0.07c0.8,2.08-0.23,4.43-2.32,5.23c-2.08,0.8-4.43-0.23-5.23-2.32c-0.09-0.24-0.16-0.5-0.21-0.74
					c-1.65-9.16-3.15-18.27-3.62-27.48c-0.52-9.19-0.04-18.43,1.53-27.45c1.53-9.03,4.23-17.79,7.67-26.2
					c3.49-8.39,7.87-16.39,12.98-23.89c10.3-14.98,23.75-27.73,39.08-37.71c7.7-4.95,15.88-9.24,24.66-12.36
					c4.4-1.55,8.95-2.78,13.74-3.45c2.4-0.31,4.87-0.47,7.45-0.31c2.57,0.16,5.28,0.63,8.02,1.95l0.07,0.04
					c2.01,0.97,2.85,3.38,1.88,5.39c-0.97,2.01-3.38,2.85-5.39,1.88C423.71,182.12,423.54,182.01,423.39,181.92z"/>
			</g>
			<g>
				<path class="st4" d="M703.63,295.82c0.37,0.76,0.62,1.34,0.88,1.99c0.27,0.63,0.5,1.26,0.74,1.89c0.46,1.26,0.9,2.51,1.3,3.77
					c0.8,2.52,1.47,5.06,2.08,7.6c1.16,5.1,2.01,10.24,2.45,15.4c0.48,5.15,0.57,10.33,0.34,15.46c-0.21,5.14-0.76,10.25-1.61,15.3
					c-1.72,10.1-4.67,19.92-8.46,29.38c-3.75,9.48-8.31,18.6-13.18,27.64c-0.56,1.05-1.87,1.44-2.91,0.88
					c-1.05-0.56-1.44-1.87-0.88-2.91c0.05-0.1,0.12-0.2,0.19-0.29c6.09-7.97,11.02-16.81,14.81-26.1c1.95-4.63,3.43-9.44,4.73-14.27
					c1.24-4.86,2.14-9.79,2.81-14.74c0.58-4.96,0.82-9.95,0.75-14.92c-0.1-4.97-0.56-9.93-1.38-14.8c-0.86-4.87-2.04-9.67-3.64-14.3
					c-0.8-2.31-1.68-4.59-2.69-6.79c-0.51-1.1-1.02-2.19-1.59-3.24c-0.29-0.52-0.57-1.05-0.86-1.55c-0.28-0.49-0.62-1.04-0.85-1.38
					c-1.26-1.84-0.79-4.35,1.04-5.61c1.84-1.26,4.35-0.79,5.61,1.04c0.11,0.16,0.21,0.32,0.29,0.49L703.63,295.82z"/>
			</g>
			<g>
				<path class="st4" d="M490.99,349.53c0.47,2.93,1.14,5.79,2,8.58c0.83,2.8,1.85,5.53,3.02,8.17c2.36,5.28,5.43,10.21,9.22,14.5
					c1.85,2.19,3.96,4.14,6.17,5.96c2.17,1.88,4.61,3.42,7.07,4.94c4.99,2.91,10.42,5.15,16.06,6.99
					c-5.9-0.61-11.75-2.28-17.18-4.93c-5.42-2.66-10.35-6.42-14.38-10.99c-1.98-2.31-3.78-4.77-5.31-7.39
					c-1.51-2.63-2.82-5.37-3.82-8.22c-1.03-2.83-1.77-5.76-2.28-8.71C491.09,355.5,490.8,352.5,490.99,349.53z"/>
			</g>
			<g>
				<path class="st4" d="M434.16,166.38c2.59-1.5,5.51-2.04,8.42-2.09c2.9-0.02,5.93,0.47,8.48,2.09c1.27,0.79,2.46,1.67,3.58,2.59
					l3.36,2.64c2.19,1.77,4.56,3.59,6.37,5.99l-3.68,0.88c-0.03-0.85,0.01-1.47,0.09-2.18c0.09-0.69,0.22-1.36,0.37-2.03
					c0.32-1.33,0.74-2.64,1.29-3.91c1.08-2.54,2.72-4.85,4.77-6.68c2.04-1.83,4.4-3.25,6.88-4.18c2.48-0.93,5.06-1.46,7.66-1.42
					c0.14,0,0.26,0.12,0.26,0.26c0,0.09-0.05,0.17-0.12,0.22c-2.14,1.41-4.18,2.72-6.03,4.16c-1.86,1.42-3.52,2.96-4.98,4.61
					c-1.44,1.67-2.74,3.4-3.86,5.29c-0.55,0.95-1.04,1.94-1.44,2.97c-0.19,0.52-0.38,1.04-0.53,1.56c-0.16,0.5-0.32,1.1-0.43,1.48
					l-0.22,0.74c-0.28,0.97-1.3,1.53-2.27,1.24c-0.57-0.17-1-0.59-1.2-1.11c-0.89-2.37-1.94-4.95-3.94-6.73
					c-0.95-0.93-2.11-1.63-3.34-2.12c-1.24-0.49-2.56-0.73-3.86-0.91c-1.29-0.19-2.54-0.38-3.78-0.64
					c-1.24-0.27-2.49-0.52-3.77-0.76c-2.55-0.48-5.17-0.9-7.99-1.49l-0.02,0c-0.14-0.03-0.23-0.17-0.2-0.31
					C434.05,166.48,434.1,166.41,434.16,166.38z"/>
			</g>
			<g>
				<path class="st16" d="M516.47,165.74c5.78-0.38,11.32-0.23,16.96,0.13c5.62,0.33,11.21,1.02,16.78,1.9
					c1.39,0.23,2.79,0.43,4.18,0.68l4.15,0.83c2.78,0.52,5.5,1.25,8.26,1.88c2.75,0.67,5.46,1.47,8.2,2.21
					c2.71,0.81,5.4,1.73,8.1,2.6c10.74,3.69,21.18,8.42,31.12,14.09c0.62,0.35,1.26,0.69,1.87,1.05l1.82,1.14l3.65,2.27
					c2.46,1.47,4.79,3.15,7.14,4.81l3.51,2.49c1.14,0.88,2.25,1.78,3.38,2.68l3.37,2.69c0.56,0.45,1.13,0.89,1.68,1.36l1.6,1.44
					c2.12,1.94,4.28,3.85,6.37,5.83l6.03,6.18c0.49,0.52,1.01,1.03,1.48,1.57l1.4,1.65l2.79,3.29l2.79,3.3
					c0.88,1.13,1.71,2.31,2.57,3.47c7.04,9.12,12.7,19.19,17.66,29.46l3.44,7.84c0.28,0.66,0.58,1.3,0.84,1.96l0.72,2.01l1.43,4.02
					l1.42,4.02c0.47,1.34,0.94,2.68,1.29,4.05c0.76,2.73,1.51,5.46,2.23,8.2c0.35,1.37,0.76,2.72,1.06,4.1l0.8,4.16l1.58,8.29
					c0.83,5.56,1.36,11.16,1.88,16.71c0.17,1.8-1.16,3.39-2.95,3.56c-1.55,0.14-2.95-0.82-3.41-2.25l-0.07-0.22
					c-0.84-2.61-1.62-5.22-2.41-7.82l-1.13-3.9c-0.38-1.3-0.73-2.61-1.22-3.87l-2.61-7.66l-1.3-3.82c-0.46-1.26-0.98-2.5-1.47-3.75
					c-1-2.49-1.98-4.98-2.93-7.47c-0.45-1.26-1.02-2.46-1.59-3.67l-1.65-3.64l-1.65-3.63l-0.82-1.81c-0.29-0.6-0.61-1.18-0.91-1.77
					l-3.68-7.04c-5.14-9.23-10.66-18.22-17.21-26.42l-2.39-3.13l-2.56-2.98l-2.55-2.99l-1.28-1.49c-0.43-0.49-0.91-0.94-1.36-1.42
					l-5.43-5.68c-1.89-1.81-3.84-3.57-5.75-5.36c-15.59-14.02-33.7-25.33-53.29-33.69l-7.41-3.01c-2.5-0.92-4.99-1.91-7.52-2.77
					c-5.06-1.73-10.19-3.32-15.37-4.74c-2.58-0.76-5.2-1.35-7.82-2.01c-2.63-0.57-5.25-1.22-7.9-1.73
					c-1.32-0.28-2.65-0.54-3.97-0.77c-1.33-0.25-2.66-0.47-3.99-0.69c-2.64-0.46-5.38-0.83-7.94-1.13l-0.14-0.02
					c-1.54-0.18-2.64-1.58-2.46-3.11C514.03,166.85,515.14,165.83,516.47,165.74z"/>
			</g>
			
				<ellipse transform="matrix(0.9985 -0.0545 0.0545 0.9985 -17.0424 37.5903)" class="st16" cx="680.72" cy="331.28" rx="8.35" ry="10.61"/>
			<path class="st16" d="M381.38,274.99c-7.46,19.54-11.62,36.1-25.46,30.81c-13.84-5.29-19.02-25.41-11.56-44.95
				c7.46-19.54,37.78-49.89,51.63-44.6C409.83,221.54,388.84,255.45,381.38,274.99z"/>
			<path class="st16" d="M698.46,347.41c-0.3,3.59-2.83,6.32-5.65,6.09c-2.83-0.23-4.88-3.33-4.58-6.93
				c0.3-3.59,2.83-6.32,5.65-6.09C696.71,340.71,698.76,343.81,698.46,347.41z"/>
			<rect x="314.06" y="623.3" class="st17" width="388.99" height="246.52"/>
			<g>
				<path class="st4" d="M704.74,871.51c-7.47,0.69-15.31,1.05-23.28,1.29c-7.96,0.25-16.11,0.31-24.33,0.28
					c-8.22-0.04-16.44-0.08-24.74-0.23l-12.42-0.2l-12.46-0.29l-49.72-1.37c-16.5-0.45-32.81-0.66-49.05-0.67
					c-32.46-0.01-64.79,0.3-97.19,0.87c-32.41,0.57-64.84,1.43-97.51,3.03c-2.31,0.11-4.27-1.67-4.38-3.97
					c-0.01-0.12-0.01-0.23,0-0.35l0-0.06c0.38-10.27,0.54-20.54,0.82-30.82c0.19-10.27,0.37-20.54,0.48-30.82
					c0.16-10.27,0.18-20.54,0.28-30.82l0.08-30.82l-0.09-30.82c-0.09-10.27-0.13-20.54-0.28-30.82
					c-0.22-20.54-0.65-41.09-1.29-61.63l-0.01-0.34c-0.07-2.18,1.64-4,3.82-4.07c0.19-0.01,0.39,0,0.57,0.02
					c16.21,1.86,32.42,2.58,48.62,2.91c8.1,0.15,16.21,0.14,24.31,0.12l24.31-0.04l48.62-0.11l48.62-0.26
					c32.42-0.23,64.83-0.5,97.25-0.93c32.42-0.41,64.83-0.91,97.25-1.69l0.15,0c2.28-0.06,4.18,1.75,4.24,4.04
					c0,0.11,0,0.24-0.01,0.35c-1.26,20.8-1.88,41.42-2.34,62.02c-0.44,20.6-0.67,41.15-0.55,61.86l0.69,62.49
					C705.35,830.51,705.26,851.28,704.74,871.51z M701.37,868.14c-0.53-20.86-0.62-41.17-0.49-61.43l0.69-60.77
					c0.12-20.38-0.11-40.92-0.55-61.4c-0.46-20.49-1.09-40.95-2.34-61.24l4.38,4.38c-32.42-0.78-64.83-1.28-97.25-1.69
					c-32.42-0.43-64.83-0.69-97.25-0.93l-48.62-0.26l-48.62-0.11L387,624.66c-8.1-0.02-16.21-0.03-24.31,0.12
					c-16.21,0.33-32.42,1.04-48.62,2.91l4.38-4.38c-0.64,20.54-1.07,41.09-1.29,61.63c-0.15,10.27-0.19,20.54-0.28,30.82
					l-0.09,30.82l0.08,30.82c0.09,10.27,0.12,20.54,0.28,30.82c0.11,10.27,0.29,20.54,0.48,30.82c0.28,10.27,0.44,20.54,0.82,30.82
					l-4.38-4.38c32.16,1.6,64.56,2.46,96.99,3.03c32.43,0.57,64.93,0.88,97.3,0.87c16.18-0.01,32.29-0.22,48.2-0.67l47.53-1.37
					l11.86-0.29l11.9-0.2c7.91-0.15,15.9-0.19,23.89-0.23c7.99-0.03,16.05,0.03,24.3,0.28
					C684.27,867.09,692.63,867.45,701.37,868.14z"/>
			</g>
			<rect x="292.91" y="570.68" class="st18" width="431.3" height="85.27"/>
			<g>
				<path class="st4" d="M725.25,656.99c-8.59,0.43-17.41,0.65-26.32,0.8c-8.91,0.14-17.91,0.19-26.97,0.17
					c-18.12-0.05-36.28-0.16-54.53-0.45l-54.58-0.84c-18.15-0.28-36.18-0.38-54.17-0.41l-53.91,0.13
					c-17.95,0.14-35.93,0.18-53.88,0.41c-35.94,0.35-71.89,0.88-107.99,1.87l-0.1,0c-1.41,0.04-2.58-1.07-2.62-2.48
					c0-0.08,0-0.16,0-0.24c0.23-3.55,0.33-7.11,0.51-10.66l0.29-10.66c0.16-7.11,0.16-14.21,0.23-21.32
					c-0.09-7.11-0.07-14.21-0.24-21.32l-0.29-10.66c-0.17-3.55-0.27-7.11-0.5-10.66c-0.09-1.41,0.98-2.62,2.38-2.71
					c0.11-0.01,0.23-0.01,0.33,0c17.97,1.15,35.94,1.59,53.91,1.8c17.97,0.15,35.94,0.05,53.91,0.05l107.83-0.23L616.38,569
					c17.97-0.07,35.94-0.3,53.91-0.45c17.97-0.16,35.94-0.33,53.91-0.58l0.23,0c1.36-0.02,2.48,1.07,2.5,2.43
					c0,0.1,0,0.19-0.01,0.28c-0.74,7.26-1.19,14.41-1.45,21.56c-0.27,7.14-0.42,14.25-0.34,21.46l0.22,10.89
					c0.08,3.65,0.18,7.32,0.19,10.95C725.63,642.83,725.57,650.08,725.25,656.99z M723.17,654.91c-0.32-7.3-0.38-14.26-0.29-21.18
					c0.01-3.48,0.11-6.91,0.19-10.37l0.22-10.42c0.08-7-0.07-14.11-0.34-21.17c-0.26-7.07-0.71-14.13-1.45-21.08l2.71,2.71
					c-17.97-0.25-35.94-0.42-53.91-0.58c-17.97-0.15-35.94-0.38-53.91-0.45l-107.83-0.59l-107.83-0.23
					c-17.97,0-35.94-0.1-53.91,0.05c-17.97,0.21-35.94,0.65-53.91,1.8l2.71-2.71c-0.23,3.55-0.33,7.11-0.5,10.66L294.84,592
					c-0.17,7.11-0.15,14.21-0.24,21.32c0.07,7.11,0.07,14.21,0.23,21.32l0.29,10.66c0.17,3.55,0.27,7.11,0.51,10.66l-2.71-2.71
					c35.78,0.99,71.72,1.52,107.67,1.87c17.99,0.22,35.95,0.27,53.94,0.4l53.92,0.13c17.94-0.03,35.86-0.13,53.65-0.41l53.24-0.84
					c17.69-0.3,35.48-0.4,53.3-0.45c8.91-0.02,17.88,0.03,26.95,0.17C704.64,654.25,713.79,654.48,723.17,654.91z"/>
			</g>
		</g>
		<g>
			<path class="st11" d="M701.02,744.54c0,0,3.78-11.48,11.37-1.09c7.82,10.71,5.25,73.09-12.84,78.04
				c-23.82,6.52-26.44-13.12-10.14-17.3c0,0-24.81,2.44-23.58-14.04c0.71-9.53,26.31-5.21,26.31-5.21s-25.24-4.35-23.67-16.68
				c1.23-9.58,26.16-6.06,26.16-6.06s-16.1-3.59-15.1-14.26C680.49,737.69,701.02,744.54,701.02,744.54z"/>
			<g>
				<path class="st19" d="M691.11,776.69c-8.54,0.11-15.91-6.47-20.57-11.98c-1.13,0.91-1.88,2.07-2.07,3.54
					c-1.58,12.33,23.67,16.68,23.67,16.68C702.92,785.9,705.78,776.51,691.11,776.69z"/>
				<path class="st19" d="M699.5,755.93c-6.11-1.54-14.14-7.72-18.49-11.37c-0.81,0.83-1.34,1.93-1.48,3.38
					c-1,10.68,15.1,14.26,15.1,14.26S708.31,758.15,699.5,755.93z"/>
				<path class="st19" d="M692.14,784.94c0,0-8.91-1.5-16.37-0.77C682.29,784.36,688.46,784.61,692.14,784.94z"/>
				<path class="st19" d="M670.6,800.59c1.63,1.13,3.54,1.93,5.52,2.48C674.25,802.4,672.4,801.55,670.6,800.59z"/>
				<path class="st19" d="M699.56,821.48c3.32-0.91,6.11-3.75,8.41-7.84c-10.18,5.77-21.9,3.57-22.12-0.02
					c-0.28-4.39,20.91-14.17,3.57-9.44C673.12,808.36,675.74,828,699.56,821.48z"/>
			</g>
			<g>
				<path class="st4" d="M700.37,743.23c-0.31,0.13-0.62,0.48-0.71,0.79l0.01-0.03l0.03-0.08l0.06-0.15l0.12-0.29l0.25-0.55
					c0.17-0.36,0.36-0.72,0.56-1.07c0.41-0.7,0.88-1.39,1.47-2.02c0.59-0.63,1.31-1.22,2.2-1.62c0.88-0.41,1.96-0.54,2.92-0.35
					c1.94,0.39,3.25,1.57,4.35,2.69c0.55,0.57,1.04,1.18,1.5,1.8c0.23,0.29,0.47,0.65,0.69,1.01c0.2,0.36,0.4,0.72,0.56,1.08
					c1.3,2.9,1.81,5.85,2.28,8.79c0.45,2.94,0.69,5.89,0.83,8.83c0.27,5.89,0.13,11.78-0.33,17.65c-0.5,5.86-1.19,11.71-2.42,17.49
					c-1.25,5.76-2.86,11.51-5.74,16.83c-1.46,2.62-3.28,5.2-5.93,7.02c-0.65,0.46-1.38,0.83-2.13,1.15
					c-0.37,0.15-0.78,0.27-1.16,0.39l-1.09,0.29c-0.72,0.21-1.45,0.39-2.18,0.56c-0.73,0.2-1.48,0.33-2.22,0.49
					c-2.98,0.59-6.18,0.96-9.48,0.15c-1.63-0.41-3.29-1.15-4.69-2.38c-1.39-1.22-2.49-2.92-2.96-4.8c-0.5-1.88-0.29-3.86,0.35-5.56
					c0.63-1.72,1.71-3.16,2.93-4.33c1.25-1.15,2.66-2.05,4.14-2.7c1.48-0.64,3.02-1.03,4.56-1.25l0.41,2.32h0
					c-2.65,0.11-5.19,0.03-7.78-0.2c-2.58-0.25-5.16-0.67-7.69-1.51c-2.51-0.83-5.03-2.14-7-4.27c-0.99-1.05-1.91-2.24-2.64-3.59
					c-0.75-1.35-1.15-2.86-1.28-4.36c-0.01-0.76-0.07-1.39,0.15-2.45c0.06-0.48,0.29-0.96,0.46-1.42c0.2-0.45,0.49-0.88,0.76-1.28
					c1.22-1.56,2.81-2.35,4.24-2.8c1.45-0.46,2.85-0.65,4.21-0.74c0.68-0.05,1.35-0.1,2.01-0.11c0.66-0.05,1.32-0.06,1.97-0.07
					c5.24-0.12,10.27,0.38,15.45,0.83l-0.53,3.1l0,0c-5.02-1.45-9.84-2.92-14.59-5.07c-2.35-1.09-4.71-2.32-6.78-4.18
					c-1.02-0.94-1.97-2.03-2.69-3.33c-0.7-1.3-1.16-2.82-1.16-4.36c0.02-0.76,0.02-1.48,0.26-2.33c0.2-0.81,0.63-1.57,1.13-2.22
					c1.04-1.3,2.43-1.98,3.73-2.44c1.32-0.45,2.62-0.7,3.9-0.93c1.28-0.23,2.54-0.47,3.82-0.63c5.12-0.6,10.15-0.61,15.41-0.76
					l-0.7,3.85l-0.01,0c-2.11-0.59-3.98-1.29-5.88-2.18c-1.88-0.88-3.72-1.93-5.4-3.3c-1.66-1.37-3.24-3.03-4.2-5.17
					c-0.48-1.06-0.81-2.2-0.94-3.37c-0.11-1.18-0.08-2.28,0.17-3.55c0.27-1.24,0.92-2.51,1.86-3.46c0.93-0.97,2.06-1.61,3.18-2.05
					c1.12-0.44,2.25-0.69,3.34-0.83c1.1-0.15,2.18-0.21,3.24-0.17c2.13,0.06,4.18,0.37,6.17,0.89c0.99,0.25,1.97,0.56,2.93,0.93
					c0.48,0.18,0.95,0.38,1.42,0.59c0.24,0.1,0.46,0.22,0.7,0.33c0.12,0.06,0.23,0.12,0.35,0.18l0.17,0.09l0.09,0.05
					c-0.01,0.01,0.15,0.03-0.23-0.04C700.89,743.03,700.58,743.1,700.37,743.23z M701.68,745.85c-0.24,0.12-0.58,0.18-0.88,0.14
					c-0.41-0.08-0.28-0.07-0.32-0.07l-0.09-0.01l-0.18-0.02l-0.36-0.04l-0.72-0.08l-1.43-0.18l-2.82-0.38
					c-1.87-0.24-3.71-0.49-5.51-0.61c-3.53-0.26-7.34,0.09-7.94,2.78c-0.17,0.66-0.2,1.54-0.13,2.32c0.09,0.79,0.3,1.56,0.63,2.29
					c0.65,1.47,1.8,2.79,3.18,3.88c2.78,2.17,6.44,3.65,9.94,4.41l0,0l0.75,0.41c0.91,0.49,1.25,1.63,0.75,2.54
					c-0.43,0.8-1.36,1.15-2.2,0.9c-2.32-0.71-4.82-1.13-7.28-1.4c-2.47-0.25-4.96-0.33-7.41-0.11c-1.23,0.11-2.45,0.25-3.63,0.58
					c-1.17,0.32-2.29,0.82-3.23,1.47c-0.94,0.65-1.69,1.43-2.11,2.21c-0.4,0.79-0.52,1.53-0.54,2.61c0.04,1.97,0.98,3.88,2.51,5.56
					c1.55,1.65,3.52,3.1,5.68,4.22c2.15,1.13,4.46,2.03,6.83,2.71c2.36,0.69,4.83,1.2,7.23,1.41l0,0l0.21,0.06
					c0.84,0.22,1.34,1.07,1.12,1.91c-0.21,0.82-1.04,1.31-1.86,1.13c-2.38-0.53-4.88-0.88-7.35-1.02c-2.47-0.17-4.96-0.14-7.38,0.1
					c-1.21,0.14-2.4,0.36-3.53,0.7c-1.12,0.37-2.18,0.82-3.04,1.37c-0.87,0.55-1.49,1.17-1.75,1.67c-0.26,0.52-0.27,0.82-0.36,2.08
					c-0.04,1.02-0.21,2.06-0.1,3.09c0.08,1.04,0.37,2.11,0.99,3c1.31,1.73,3.29,3.09,5.52,3.94c4.46,1.74,9.62,2.1,14.43,1.59h0
					c0.62-0.15,1.24,0.23,1.39,0.85c0.13,0.56-0.16,1.12-0.67,1.33l-0.32,0.13c-1.28,0.55-2.5,1.15-3.62,1.85
					c-1.09,0.74-2.09,1.55-2.87,2.5c-1.59,1.84-2.35,4.18-1.76,6.08c0.5,1.93,2.29,3.36,4.6,4.27c2.31,0.89,5.08,1.34,7.88,1.2
					c0.7-0.02,1.4-0.09,2.1-0.19c0.7-0.07,1.4-0.2,2.1-0.37l1.04-0.24c0.32-0.1,0.62-0.18,0.92-0.3c0.59-0.25,1.18-0.53,1.72-0.92
					c2.21-1.48,3.91-3.79,5.29-6.24c2.73-4.97,4.37-10.58,5.62-16.21c2.43-11.32,3.18-23.04,2.6-34.59
					c-0.17-2.89-0.43-5.77-0.89-8.6c-0.48-2.81-1.1-5.66-2.26-8.08c-0.14-0.3-0.31-0.58-0.47-0.85c-0.17-0.25-0.34-0.5-0.57-0.78
					c-0.42-0.55-0.87-1.07-1.34-1.54c-0.92-0.94-2.01-1.72-2.98-1.86c-0.94-0.18-1.81,0.31-2.61,1.22
					c-0.39,0.46-0.74,0.99-1.04,1.56c-0.15,0.29-0.29,0.58-0.42,0.88l-0.18,0.45l-0.08,0.22l-0.04,0.11l-0.02,0.05l-0.01,0.03
					C702.31,745.33,702,745.7,701.68,745.85z"/>
			</g>
		</g>
		<g>
			<path class="st11" d="M316.36,733.18c0,0-4.46-13.55-13.42-1.29c-9.23,12.64-6.2,86.26,15.15,92.11
				c28.11,7.69,31.21-15.49,11.97-20.41c0,0,29.28,2.88,27.83-16.57c-0.84-11.24-31.05-6.15-31.05-6.15s29.8-5.13,27.93-19.68
				c-1.45-11.31-30.87-7.16-30.87-7.16s19-4.23,17.82-16.84C340.6,725.1,316.36,733.18,316.36,733.18z"/>
			<g>
				<path class="st19" d="M328.06,771.13c10.08,0.12,18.78-7.63,24.28-14.13c1.33,1.08,2.22,2.45,2.44,4.18
					c1.86,14.55-27.93,19.68-27.93,19.68C314.12,782,310.75,770.92,328.06,771.13z"/>
				<path class="st19" d="M318.16,746.62c7.21-1.82,16.69-9.12,21.82-13.42c0.95,0.98,1.59,2.28,1.74,3.99
					c1.18,12.6-17.82,16.84-17.82,16.84S307.76,749.24,318.16,746.62z"/>
				<path class="st19" d="M326.85,780.86c0,0,10.52-1.77,19.32-0.91C338.47,780.18,331.2,780.48,326.85,780.86z"/>
				<path class="st19" d="M352.27,799.33c-1.93,1.33-4.18,2.27-6.51,2.93C347.97,801.47,350.15,800.47,352.27,799.33z"/>
				<path class="st19" d="M318.09,824c-3.91-1.07-7.21-4.42-9.93-9.25c12.02,6.81,25.84,4.22,26.11-0.02
					c0.33-5.18-24.68-16.73-4.21-11.14C349.3,808.51,346.2,831.69,318.09,824z"/>
			</g>
			<g>
				<path class="st4" d="M315.59,734.72c-0.37-0.18-0.75-0.61-0.87-1.01l-0.01-0.04l-0.02-0.06l-0.04-0.13l-0.1-0.26l-0.22-0.53
					c-0.15-0.35-0.32-0.7-0.5-1.04c-0.36-0.67-0.77-1.3-1.23-1.84c-0.94-1.08-1.97-1.65-3.08-1.44c-1.15,0.17-2.42,1.08-3.51,2.19
					c-0.56,0.55-1.08,1.17-1.58,1.81c-0.27,0.33-0.47,0.62-0.67,0.92c-0.19,0.33-0.39,0.65-0.55,1.01c-1.37,2.85-2.1,6.22-2.67,9.54
					c-0.54,3.34-0.85,6.75-1.05,10.15c-0.69,13.64,0.19,27.47,3.06,40.83c1.48,6.64,3.41,13.27,6.63,19.14
					c1.62,2.89,3.63,5.62,6.24,7.36c0.64,0.45,1.33,0.79,2.03,1.08c0.36,0.14,0.71,0.24,1.09,0.36l1.23,0.28
					c0.82,0.19,1.64,0.35,2.47,0.43c0.83,0.12,1.65,0.2,2.48,0.23c3.3,0.17,6.58-0.37,9.3-1.42c2.72-1.07,4.83-2.76,5.43-5.04
					c0.71-2.24-0.19-5-2.07-7.17c-0.92-1.12-2.1-2.08-3.39-2.95c-1.32-0.83-2.76-1.54-4.27-2.19l-0.37-0.16
					c-0.69-0.29-1.01-1.09-0.72-1.79c0.26-0.62,0.94-0.94,1.57-0.79l0,0c2.81,0.34,5.8,0.35,8.67,0.05c2.88-0.3,5.74-0.87,8.36-1.93
					c2.63-1,4.97-2.61,6.52-4.65c0.74-1.06,1.08-2.32,1.17-3.54c0.13-1.22-0.07-2.44-0.12-3.65c-0.07-0.58-0.08-1.35-0.14-1.56
					c0.01-0.18-0.1-0.29-0.11-0.46c-0.05-0.15-0.13-0.28-0.18-0.44c-0.32-0.59-1.05-1.33-2.07-1.98c-1.02-0.65-2.27-1.2-3.59-1.62
					c-1.33-0.39-2.74-0.69-4.17-0.83c-2.86-0.28-5.79-0.31-8.72-0.11c-2.91,0.18-5.87,0.58-8.68,1.21c-1,0.22-1.98-0.4-2.21-1.4
					c-0.22-0.97,0.38-1.94,1.33-2.19l0.25-0.07l0,0c2.83-0.25,5.75-0.85,8.53-1.66c2.8-0.81,5.52-1.86,8.06-3.2
					c2.54-1.33,4.87-3.03,6.69-4.99c1.79-1.99,2.93-4.23,2.97-6.56c-0.02-1.27-0.16-2.14-0.63-3.08c-0.49-0.91-1.38-1.84-2.49-2.6
					c-1.11-0.77-2.44-1.36-3.82-1.74c-1.38-0.39-2.83-0.55-4.28-0.68c-2.9-0.25-5.84-0.16-8.75,0.13c-2.9,0.31-5.85,0.81-8.59,1.65
					c-1.17,0.36-2.41-0.3-2.77-1.47c-0.31-1.02,0.15-2.1,1.06-2.59l0.88-0.48l0,0c0.97-0.19,2.08-0.5,3.11-0.83
					c1.04-0.34,2.07-0.72,3.08-1.15c1.99-0.88,3.9-1.93,5.54-3.23c1.64-1.29,3-2.84,3.76-4.58c0.38-0.87,0.64-1.77,0.74-2.7
					c0.08-0.92,0.04-1.95-0.16-2.73c-0.71-3.17-5.2-3.59-9.37-3.28c-2.13,0.13-4.3,0.43-6.51,0.71l-3.33,0.45l-1.68,0.21l-0.85,0.1
					l-0.42,0.04l-0.21,0.02l-0.1,0.01c-0.05,0,0.1-0.01-0.38,0.08C316.27,734.94,315.87,734.86,315.59,734.72z M317.14,731.64
					c-0.25-0.15-0.61-0.24-0.93-0.2c-0.45,0.08-0.26,0.06-0.28,0.04l0.1-0.06l0.2-0.11c0.14-0.08,0.27-0.15,0.41-0.21
					c0.27-0.13,0.55-0.27,0.82-0.39c0.55-0.25,1.11-0.48,1.68-0.69c1.13-0.43,2.28-0.8,3.45-1.09c2.35-0.61,4.77-0.98,7.28-1.05
					c1.25-0.05,2.54,0.03,3.83,0.2c1.29,0.16,2.62,0.46,3.94,0.97c1.31,0.51,2.65,1.28,3.75,2.42c1.11,1.12,1.88,2.62,2.2,4.08
					c0.29,1.49,0.32,2.8,0.2,4.19c-0.16,1.37-0.54,2.73-1.11,3.97c-1.13,2.53-3,4.49-4.95,6.11c-1.98,1.61-4.15,2.85-6.38,3.89
					c-2.25,1.06-4.46,1.88-6.94,2.58l-0.01,0l-0.82-4.54c3.14,0.08,6.12,0.13,9.15,0.25c1.51,0.05,3.01,0.14,4.52,0.23
					c1.51,0.11,3.01,0.25,4.51,0.42c1.5,0.18,2.99,0.47,4.5,0.74c1.51,0.27,3.04,0.57,4.6,1.1c1.53,0.54,3.18,1.35,4.41,2.88
					c0.27,0.4,0.59,0.78,0.8,1.23c0.19,0.46,0.45,0.9,0.53,1.39c0.28,0.99,0.28,1.84,0.31,2.74c0.01,1.81-0.54,3.6-1.37,5.14
					c-0.84,1.54-1.95,2.84-3.17,3.94c-2.45,2.18-5.23,3.64-8.01,4.92c-5.6,2.54-11.29,4.27-17.22,5.98l0,0l-0.62-3.66
					c6.11-0.53,12.05-1.11,18.24-0.97c3.09,0.14,6.23,0.06,9.67,1.09c0.86,0.26,1.73,0.63,2.59,1.17c0.87,0.51,1.7,1.24,2.41,2.14
					c0.32,0.48,0.66,0.98,0.9,1.51c0.2,0.55,0.48,1.11,0.54,1.68c0.26,1.25,0.19,1.99,0.18,2.89c-0.14,1.76-0.62,3.55-1.51,5.14
					c-0.87,1.59-1.95,3-3.11,4.24c-2.33,2.51-5.29,4.05-8.26,5.04c-2.99,0.99-6.04,1.49-9.08,1.79c-3.06,0.27-6.05,0.36-9.18,0.24h0
					l0.48-2.73c1.81,0.26,3.63,0.72,5.38,1.47c1.75,0.76,3.41,1.83,4.88,3.19c1.44,1.39,2.71,3.09,3.46,5.11
					c0.75,2,1,4.35,0.42,6.56c-0.56,2.21-1.85,4.22-3.49,5.66c-1.65,1.44-3.61,2.32-5.53,2.81c-3.89,0.96-7.67,0.52-11.19-0.18
					c-0.88-0.19-1.77-0.33-2.62-0.57l-1.3-0.31l-1.28-0.35l-1.28-0.34c-0.44-0.14-0.92-0.28-1.36-0.46
					c-0.89-0.37-1.75-0.81-2.52-1.35c-3.14-2.15-5.28-5.19-7-8.28c-3.39-6.27-5.3-13.07-6.77-19.86
					c-1.46-6.81-2.27-13.72-2.86-20.64c-0.54-6.92-0.72-13.87-0.39-20.83c0.17-3.48,0.46-6.96,0.98-10.43
					c0.55-3.47,1.15-6.95,2.69-10.37c0.19-0.43,0.43-0.85,0.66-1.27c0.27-0.42,0.55-0.85,0.82-1.19c0.54-0.73,1.12-1.45,1.77-2.12
					c1.29-1.33,2.84-2.71,5.13-3.17c1.13-0.22,2.4-0.08,3.45,0.41c1.05,0.47,1.9,1.17,2.6,1.91c0.69,0.75,1.25,1.56,1.73,2.39
					c0.24,0.42,0.46,0.84,0.67,1.27l0.29,0.65l0.14,0.34l0.07,0.17l0.03,0.09l0.01,0.04C317.87,732.2,317.5,731.79,317.14,731.64z"
					/>
			</g>
		</g>
	</g>
	<g>
		<g>
			<path class="st11" d="M402.04,799.63c-1.27,1.01-2.4,1.4-3.42,1.17l-0.44-0.12c-0.69-0.18-1.19-0.41-1.49-0.69l-22.16-19.69
				c-0.08,0.23-0.18,0.42-0.28,0.57c-0.1,0.15-0.28,0.36-0.52,0.64c-0.67,0.75-1.42,1.18-2.25,1.3c-0.83,0.11-1.52-0.07-2.07-0.56
				c-0.78-0.7-1.06-1.74-0.83-3.12c0.23-1.39,0.7-2.87,1.44-4.44c0.73-1.58,1.6-3.11,2.61-4.59c1.01-1.48,1.91-2.66,2.7-3.55
				c2.24-2.52,4.65-4.41,7.23-5.66c2.57-1.25,5.15-1.94,7.73-2.06c2.58-0.12,5.1,0.28,7.58,1.19c2.47,0.92,4.72,2.27,6.72,4.05
				c2.04,1.82,3.69,3.98,4.93,6.49c1.24,2.51,1.93,5.2,2.07,8.06c0.05,1.94-0.21,3.82-0.78,5.67c-0.57,1.84-1.31,3.64-2.23,5.39
				s-1.95,3.46-3.09,5.12c-1.15,1.67-2.26,3.24-3.33,4.73L402.04,799.63z M379.78,770.6c-0.42,0.48-0.82,0.99-1.19,1.55
				c-0.37,0.56-0.75,1.12-1.14,1.69l21.79,19.36c0.72-1.01,1.45-2.1,2.21-3.26c0.76-1.16,1.43-2.33,2.02-3.51
				c0.59-1.18,1.05-2.37,1.39-3.57c0.33-1.2,0.43-2.38,0.3-3.53c-0.22-2.09-0.82-4.04-1.8-5.86c-0.98-1.82-2.24-3.41-3.77-4.77
				c-1.33-1.18-2.81-2.09-4.45-2.72c-1.64-0.63-3.32-0.89-5.06-0.79c-1.74,0.1-3.5,0.59-5.27,1.45
				C383.03,767.51,381.36,768.82,379.78,770.6z"/>
			<path class="st11" d="M437.91,756.49c1.01-0.79,1.97-1.13,2.89-1.03c0.92,0.1,1.6,0.49,2.06,1.17c0.28,0.42,0.41,0.95,0.4,1.58
				c-0.01,0.64-0.23,1.35-0.64,2.12c-1.29,1.52-2.76,3.01-4.41,4.48c-1.65,1.46-3.41,2.82-5.27,4.06c-2.8,1.88-5.61,3.32-8.42,4.32
				c-1.7,0.15-2.85-0.32-3.46-1.39l-16.4-24.51c-0.68,0.18-1.28,0.15-1.8-0.07s-0.93-0.57-1.24-1.02c-0.33-0.49-0.46-1.08-0.39-1.75
				c0.07-0.68,0.38-1.42,0.94-2.23c1.69-2.07,3.62-3.92,5.79-5.56c2.17-1.64,4.41-3.24,6.72-4.79c0.83-0.56,1.65-1.12,2.46-1.68
				c0.8-0.56,1.59-1.13,2.36-1.7c0.97-0.6,1.95-0.86,2.92-0.8c0.97,0.06,1.65,0.38,2.03,0.94c0.38,0.57,0.52,1.25,0.41,2.03
				c-0.11,0.79-0.55,1.58-1.33,2.37c-0.73,0.55-1.52,1.11-2.36,1.7c-0.84,0.59-1.7,1.18-2.57,1.76c-1.55,1.04-3.07,2.08-4.54,3.12
				c-1.47,1.04-2.89,2.18-4.25,3.43l6.39,9.55c0.4-0.22,0.77-0.45,1.1-0.69c0.33-0.25,0.7-0.51,1.12-0.79
				c1.48-0.99,2.94-2.02,4.39-3.1c1.45-1.08,2.9-2.21,4.35-3.4c1.01-0.79,1.98-1.12,2.91-1.01c0.93,0.12,1.61,0.49,2.03,1.13
				c0.38,0.56,0.51,1.22,0.41,1.96c-0.1,0.75-0.53,1.51-1.27,2.28c-1.54,1.31-3.12,2.56-4.72,3.77c-1.61,1.21-3.26,2.39-4.97,3.53
				c-0.42,0.28-0.74,0.51-0.98,0.69c-0.23,0.18-0.57,0.4-1.01,0.64l5.79,8.64c0.77-0.41,1.51-0.8,2.21-1.19
				c0.7-0.39,1.41-0.82,2.13-1.3c1.55-1.04,3.02-2.17,4.4-3.39c1.38-1.22,2.64-2.49,3.79-3.81L437.91,756.49z"/>
			<path class="st11" d="M469.88,744.85c1.01-0.04,1.84,0.12,2.48,0.48c0.65,0.36,1.08,0.84,1.3,1.43c0.22,0.59,0.18,1.23-0.12,1.92
				c-0.3,0.69-0.9,1.33-1.81,1.91c-1.61,0.65-3.23,1.3-4.86,1.94c-1.64,0.64-3.27,1.26-4.89,1.87c-1.44,0.59-3.03,1.21-4.78,1.87
				c-1.75,0.66-3.36,1.31-4.82,1.96c-2,0.51-3.44-0.07-4.31-1.74c-1.06-2.82-2.09-5.6-3.09-8.34c-1-2.74-2.04-5.52-3.09-8.34
				c-1.02-2.83-2.04-5.64-3.09-8.42c-1.04-2.78-2.09-5.57-3.15-8.39c-0.11-0.93,0.03-1.73,0.42-2.39c0.39-0.66,0.94-1.12,1.67-1.39
				c0.73-0.27,1.45-0.31,2.18-0.12c0.73,0.19,1.4,0.64,2,1.34c1,2.65,1.97,5.29,2.93,7.91c0.96,2.62,1.92,5.21,2.88,7.78
				c0.94,2.63,1.87,5.17,2.79,7.63c0.92,2.46,1.87,5,2.85,7.61c1.29-0.58,2.59-1.11,3.9-1.57c1.31-0.47,2.62-0.97,3.93-1.51
				c1.41-0.53,2.84-1.08,4.28-1.64C466.94,746.04,468.4,745.45,469.88,744.85z"/>
			<path class="st11" d="M490.12,740.93c0.5-0.07,0.92-0.15,1.28-0.23c0.36-0.08,0.78-0.18,1.27-0.3l0.27-0.04
				c1.29-0.29,2.34-0.17,3.13,0.35c0.79,0.52,1.25,1.16,1.36,1.92c0.09,0.62-0.07,1.27-0.5,1.92c-0.43,0.66-1.17,1.18-2.22,1.57
				c-0.81,0.17-1.64,0.32-2.49,0.45c-0.86,0.13-1.71,0.26-2.57,0.39l-8.93,1.35c-1.15-0.01-2.05-0.26-2.68-0.76
				c-0.63-0.5-0.99-1.08-1.1-1.75c-0.12-0.76,0.08-1.46,0.58-2.11c0.5-0.65,1.33-1.1,2.49-1.37c0.68-0.1,1.25-0.2,1.72-0.29
				c0.47-0.09,1.02-0.17,1.66-0.22l-4.33-28.62l-3.65,0.55c-1.15-0.01-2.05-0.26-2.68-0.76c-0.63-0.5-1-1.1-1.11-1.82
				c-0.11-0.71,0.09-1.39,0.59-2.04c0.5-0.64,1.33-1.1,2.49-1.37l14-2.12c0.99,0.17,1.77,0.5,2.33,0.98
				c0.56,0.49,0.88,1.02,0.97,1.6c0.1,0.62-0.08,1.25-0.51,1.89c-0.43,0.64-1.15,1.14-2.16,1.52l-3.59,0.54L490.12,740.93z"/>
			<path class="st11" d="M533.79,707.7c0.46-0.6,0.96-1.04,1.48-1.32c0.53-0.28,1.13-0.39,1.81-0.33c0.86,0.07,1.6,0.41,2.22,1.01
				c0.61,0.6,0.88,1.36,0.81,2.26c-0.02,0.23-0.06,0.45-0.13,0.68c-0.06,0.22-0.15,0.45-0.26,0.66
				c-3.85,5.58-7.26,11.32-10.22,17.21c-2.96,5.89-5.83,11.71-8.6,17.48c-0.38,0.75-0.89,1.3-1.51,1.66
				c-0.62,0.36-1.28,0.51-1.96,0.45c-0.64-0.05-1.21-0.27-1.73-0.66c-0.52-0.39-0.93-0.94-1.24-1.65
				c-1.89-6.38-3.74-12.74-5.55-19.07c-1.81-6.33-3.61-12.71-5.41-19.13c0-0.04-0.01-0.06-0.03-0.04c-0.03,0.02-0.03-0.01-0.03-0.11
				l0.03-0.34c0.09-1.04,0.46-1.82,1.12-2.31c0.66-0.49,1.42-0.71,2.28-0.63c1.27,0.11,2.27,0.81,2.98,2.1
				c0.93,3.1,1.75,5.88,2.46,8.34c0.71,2.46,1.39,4.82,2.05,7.07c0.66,2.25,1.31,4.53,1.94,6.82c0.63,2.3,1.31,4.83,2.04,7.59
				l1.96-3.68l-0.01,0.07l1.31-2.57c0.17-0.35,0.36-0.7,0.57-1.05c0.21-0.35,0.4-0.7,0.57-1.05c1.75-3.42,3.5-6.77,5.27-10.03
				C529.79,713.88,531.71,710.73,533.79,707.7z"/>
			<path class="st11" d="M564.26,749.81c1.23,0.34,2.08,0.91,2.55,1.71c0.47,0.8,0.56,1.58,0.29,2.35c-0.17,0.47-0.51,0.9-1.03,1.27
				c-0.52,0.37-1.21,0.62-2.08,0.75c-1.99-0.13-4.06-0.42-6.23-0.87c-2.16-0.45-4.3-1.06-6.4-1.81c-3.18-1.13-6.01-2.53-8.48-4.18
				c-1.13-1.27-1.45-2.48-0.95-3.61l9.89-27.78c-0.55-0.44-0.89-0.93-1.01-1.49c-0.13-0.56-0.1-1.09,0.08-1.61
				c0.2-0.56,0.59-1.01,1.17-1.36c0.58-0.35,1.37-0.54,2.35-0.58c2.67,0.13,5.3,0.57,7.92,1.33c2.61,0.76,5.23,1.61,7.85,2.54
				c0.95,0.34,1.88,0.66,2.82,0.97c0.93,0.31,1.86,0.6,2.77,0.88c1.06,0.43,1.85,1.05,2.39,1.87c0.53,0.82,0.68,1.55,0.45,2.19
				c-0.23,0.65-0.69,1.16-1.38,1.54c-0.69,0.38-1.59,0.5-2.7,0.35c-0.88-0.26-1.8-0.56-2.77-0.88c-0.97-0.32-1.96-0.66-2.94-1.01
				c-1.76-0.63-3.5-1.22-5.21-1.78c-1.71-0.56-3.48-1.02-5.29-1.37l-3.86,10.83c0.41,0.2,0.82,0.35,1.21,0.47
				c0.39,0.12,0.83,0.26,1.3,0.43c1.68,0.6,3.38,1.15,5.11,1.67c1.73,0.52,3.5,1.01,5.33,1.46c1.23,0.34,2.08,0.92,2.54,1.73
				c0.46,0.81,0.56,1.58,0.31,2.3c-0.23,0.64-0.67,1.14-1.33,1.5c-0.66,0.36-1.53,0.47-2.59,0.33c-1.97-0.46-3.91-0.97-5.84-1.54
				c-1.93-0.57-3.86-1.2-5.79-1.88c-0.47-0.17-0.85-0.29-1.14-0.37c-0.29-0.08-0.66-0.22-1.12-0.43l-3.49,9.8
				c0.78,0.38,1.54,0.73,2.27,1.06c0.73,0.33,1.5,0.64,2.32,0.93c1.76,0.63,3.54,1.13,5.35,1.51c1.8,0.38,3.58,0.63,5.32,0.77
				L564.26,749.81z"/>
			<path class="st11" d="M576.32,762.04c-0.7,0.96-1.5,1.46-2.39,1.52c-0.89,0.06-1.68-0.15-2.36-0.61
				c-0.64-0.44-1.09-1.06-1.34-1.86c-0.25-0.8-0.14-1.68,0.33-2.62l17.95-26.46c-0.4-0.55-0.65-1.16-0.75-1.83
				c-0.1-0.67,0.03-1.27,0.39-1.8c0.56-0.83,1.37-1.3,2.44-1.4c2.44,0.06,4.9,0.46,7.37,1.2c2.47,0.74,4.77,1.83,6.88,3.26
				c1.77,1.2,3.28,2.56,4.52,4.06c1.24,1.5,2.14,3.22,2.71,5.14c0.74,2.32,0.97,4.43,0.67,6.32c-0.29,1.89-0.95,3.59-1.97,5.1
				c-0.82,1.21-1.81,2.26-2.96,3.15c-1.16,0.89-2.43,1.61-3.82,2.16c-1.39,0.54-2.86,0.91-4.42,1.09c-1.56,0.18-3.15,0.13-4.78-0.15
				l2.25,16.06c0.03,1.01-0.13,1.78-0.49,2.31c-0.49,0.72-1.13,1.12-1.93,1.21c-0.8,0.09-1.56-0.11-2.28-0.6
				c-0.42-0.28-0.79-0.63-1.11-1.04c-0.33-0.41-0.53-0.93-0.61-1.53c-0.06-0.65-0.21-1.85-0.45-3.61c-0.24-1.76-0.52-3.66-0.85-5.7
				c-0.33-2.04-0.62-3.95-0.87-5.72c-0.26-1.77-0.41-2.95-0.46-3.53c-1.98-0.9-3.85-1.92-5.61-3.06L576.32,762.04z M605.97,741.97
				c-0.43-1.23-1.07-2.31-1.9-3.23c-0.83-0.92-1.78-1.75-2.84-2.46c-1.81-1.23-3.72-2.08-5.71-2.55l-9.72,14.33
				c1.33,0.8,2.7,1.56,4.11,2.29c1.4,0.73,2.93,1.27,4.57,1.61c0.97,0.27,1.98,0.37,3.03,0.28c1.05-0.09,2.07-0.29,3.06-0.61
				c0.99-0.32,1.9-0.78,2.74-1.36c0.84-0.59,1.52-1.26,2.03-2.01c0.59-0.87,0.96-1.82,1.1-2.85
				C606.6,744.37,606.44,743.23,605.97,741.97z"/>
			<path class="st11" d="M611.6,791.58c-0.89,0.71-1.78,0.98-2.65,0.81c-0.88-0.18-1.58-0.57-2.12-1.19
				c-0.51-0.59-0.78-1.3-0.82-2.14c-0.04-0.84,0.3-1.66,1-2.45l6.2-5.38c1.03-0.9,2.06-1.8,3.08-2.72c1.02-0.91,2.06-1.83,3.13-2.76
				c0.22-3.99,0.75-7.85,1.6-11.58c0.85-3.72,2.28-7.24,4.29-10.56c0.03-0.03,0.07-0.08,0.11-0.14c0.04-0.06,0.14-0.17,0.31-0.32
				c0.79-0.69,1.61-0.98,2.44-0.89c0.83,0.09,1.53,0.46,2.1,1.12c0.84,0.97,1.05,2.23,0.65,3.78c-1.75,2.72-2.97,5.52-3.68,8.4
				c-0.71,2.88-1.18,5.84-1.43,8.9l2.77-0.05c2.72,0,5.5-0.06,8.36-0.18c2.85-0.12,5.61-0.49,8.28-1.11
				c0.79-0.14,1.48-0.09,2.07,0.15c0.6,0.24,1.09,0.58,1.48,1.03c0.54,0.62,0.82,1.36,0.84,2.22c0.02,0.86-0.32,1.59-1,2.18
				c-0.21,0.18-0.4,0.32-0.59,0.42c-0.18,0.1-0.39,0.19-0.62,0.27c-3.05,0.66-6.13,1.04-9.23,1.16c-3.1,0.12-6.23,0.23-9.41,0.33
				l-5,0.08c-0.62,0.54-1.48,1.28-2.58,2.24c-1.1,0.96-2.27,1.97-3.49,3.03c-1.22,1.06-2.39,2.09-3.49,3.07
				C613.08,790.28,612.22,791.04,611.6,791.58z"/>
		</g>
		<g>
			<path class="st11" d="M494.1,802.39c-0.04,1.02-0.36,1.76-0.97,2.23c-0.61,0.47-1.26,0.7-1.96,0.7c-0.67,0-1.29-0.23-1.88-0.67
				c-0.59-0.45-0.92-1.14-1-2.08c-0.2-1.68-0.42-3.48-0.67-5.4c-0.26-1.92-0.54-3.86-0.85-5.84c-0.31-1.97-0.67-3.93-1.09-5.87
				c-0.41-1.94-0.85-3.76-1.32-5.48c-0.63,1.49-1.22,3-1.79,4.55c-0.57,1.55-1.16,3.14-1.79,4.78c-0.78,2.11-1.56,4.22-2.35,6.33
				c-0.78,2.11-1.58,4.13-2.4,6.04c-0.7,0.78-1.55,1.17-2.52,1.17c-0.74,0-1.55-0.37-2.41-1.11l-10.62-20.82
				c-0.16,1.68-0.31,3.39-0.47,5.13c-0.16,1.74-0.31,3.51-0.47,5.31l-1.11,11.91c-0.31,0.78-0.73,1.36-1.26,1.73
				c-0.53,0.37-1.07,0.56-1.61,0.56c-0.7,0-1.34-0.24-1.91-0.7c-0.57-0.47-0.89-1.15-0.97-2.05l2.99-31.44
				c0.12-0.74,0.45-1.32,1-1.73c0.55-0.41,1.17-0.62,1.88-0.62c1.02,0,1.86,0.47,2.52,1.41c1.09,1.92,2.17,3.92,3.23,6.01
				c1.06,2.09,2.13,4.21,3.23,6.36c1.02,2.03,1.97,3.92,2.84,5.66c0.88,1.74,1.83,3.53,2.85,5.37c0.59-1.49,1.17-3.01,1.76-4.58
				c0.59-1.56,1.19-3.17,1.82-4.81c0.9-2.42,1.81-4.83,2.73-7.21c0.92-2.38,1.85-4.67,2.79-6.86c0.63-1.06,1.53-1.58,2.7-1.58
				c0.59,0,1.14,0.19,1.67,0.56c0.53,0.37,0.91,0.93,1.14,1.67c0.7,2.39,1.38,4.89,2.02,7.51c0.64,2.62,1.25,5.28,1.82,7.98
				c0.57,2.7,1.06,5.4,1.47,8.09C493.54,797.29,493.87,799.89,494.1,802.39z"/>
			<path class="st11" d="M527.65,802.22c-0.08,0.98-0.38,1.71-0.91,2.2c-0.53,0.49-1.16,0.73-1.91,0.73c-0.55,0-1.09-0.16-1.61-0.47
				c-0.53-0.31-0.95-0.8-1.26-1.47c-0.2-1.76-0.5-3.48-0.91-5.16c-0.41-1.68-0.93-3.4-1.55-5.16c-2.46,0-4.93,0.02-7.39,0.06
				c-2.46,0.04-4.95,0.06-7.45,0.06h-0.12c-0.47,1.64-0.91,3.22-1.32,4.72c-0.41,1.51-0.79,3.12-1.14,4.84
				c-0.31,0.86-0.72,1.49-1.23,1.88c-0.51,0.39-1.06,0.59-1.64,0.59c-0.82,0-1.54-0.32-2.14-0.97c-0.61-0.65-0.79-1.5-0.56-2.55
				c1.25-5.59,2.78-11.05,4.58-16.37c1.8-5.32,4.07-10.58,6.8-15.78l-0.06,0.06c0.31-0.82,1-1.35,2.05-1.58h-0.06
				c1.06-0.35,1.99-0.16,2.82,0.59c0.98,0.94,1.89,1.98,2.73,3.14c0.84,1.15,1.62,2.35,2.35,3.58c0.72,1.23,1.4,2.47,2.02,3.73
				c0.63,1.25,1.21,2.44,1.76,3.58c0.35,0.74,0.72,1.57,1.11,2.49c0.39,0.92,0.76,1.83,1.11,2.73c0.43,0,0.9-0.01,1.41-0.03
				c0.51-0.02,0.98-0.03,1.41-0.03c0.82,0.27,1.43,0.65,1.82,1.11c0.39,0.47,0.59,0.98,0.59,1.53c0,0.55-0.22,1.07-0.65,1.55
				c-0.43,0.49-1.1,0.83-1.99,1.03h-0.7C526.58,795.88,527.26,799.01,527.65,802.22z M514.1,780.16c-0.47-0.86-0.95-1.72-1.44-2.58
				c-0.49-0.86-0.97-1.62-1.44-2.29c-0.94,1.99-1.81,4.02-2.61,6.07c-0.8,2.05-1.59,4.19-2.38,6.42c1.99,0,3.9-0.02,5.72-0.06
				c1.82-0.04,3.73-0.06,5.72-0.06c-0.47-1.13-0.96-2.21-1.47-3.23c-0.51-1.02-1.02-2.09-1.53-3.23L514.1,780.16z"/>
			<path class="st11" d="M555.75,770.19c0.19-0.86,0.56-1.5,1.09-1.91c0.53-0.41,1.12-0.62,1.79-0.62c0.62,0,1.22,0.2,1.79,0.59
				c0.57,0.39,0.95,0.98,1.14,1.76c0,5.51-0.04,10.88-0.12,16.1c-0.08,5.22-0.27,10.61-0.59,16.16c-0.04,0.2-0.06,0.34-0.06,0.44
				c0,0.1,0,0.19,0,0.26c-0.27,0.74-0.67,1.3-1.17,1.67c-0.51,0.37-1.04,0.56-1.58,0.56c-0.9,0-1.76-0.41-2.58-1.23l-0.41-0.7
				c-1.33-2.23-2.69-4.38-4.08-6.45c-1.39-2.07-2.82-4.09-4.28-6.04c-1.47-1.96-2.96-3.9-4.49-5.84c-1.53-1.94-3.07-3.88-4.63-5.84
				v9.85c0,2.03,0.01,4.15,0.03,6.33c0.02,2.19,0.03,4.58,0.03,7.16c-0.04,1.02-0.36,1.76-0.97,2.23c-0.61,0.47-1.24,0.7-1.91,0.7
				c-0.7,0-1.34-0.23-1.91-0.67c-0.57-0.45-0.91-1.12-1.03-2.02c0-2.58-0.01-5.19-0.03-7.83c-0.02-2.64-0.03-5.31-0.03-8.01v-15.9
				c0.19-0.78,0.55-1.38,1.06-1.79c0.51-0.41,1.11-0.62,1.82-0.62c0.59,0,1.33,0.29,2.23,0.88l1.82,2.11
				c3.01,3.6,5.9,7.13,8.68,10.59c2.78,3.46,5.46,7.15,8.04,11.06c0.12-3.95,0.21-7.75,0.26-11.41c0.06-3.66,0.09-7.5,0.09-11.53
				V770.19z"/>
		</g>
	</g>
</g>
<g id="Layer_4">
</g>
<g id="Layer_3">
</g>
</svg>
